<svg xmlns="http://www.w3.org/2000/svg" width="127.0mm" height="124.3mm"
     viewBox="0 0 127.0 124.3" role="img"
     aria-label="Axial section of a 11-ring bell: the bore climbing one staircase and the outside another, wall between them">
  <!-- DISPLAY ONLY - not a cut file. Generated by bell-section.py from bell-round-bore25-99mm-11rings.svg. -->
  <rect width="127.0" height="124.3" fill="#faf7f0"/>
  <rect x="14.000" y="56.878" width="9.000" height="2.070" fill="#c9a227" stroke="#6b5416" stroke-width="0.4"/>
  <rect x="14.000" y="65.322" width="9.000" height="2.070" fill="#c9a227" stroke="#6b5416" stroke-width="0.4"/>
  <rect x="23.000" y="55.386" width="9.000" height="1.492" fill="#c9a227" stroke="#6b5416" stroke-width="0.4"/>
  <rect x="23.000" y="67.392" width="9.000" height="1.492" fill="#c9a227" stroke="#6b5416" stroke-width="0.4"/>
  <rect x="32.000" y="54.235" width="9.000" height="1.151" fill="#c9a227" stroke="#6b5416" stroke-width="0.4"/>
  <rect x="32.000" y="68.885" width="9.000" height="1.151" fill="#c9a227" stroke="#6b5416" stroke-width="0.4"/>
  <rect x="41.000" y="53.302" width="9.000" height="0.933" fill="#c9a227" stroke="#6b5416" stroke-width="0.4"/>
  <rect x="41.000" y="70.036" width="9.000" height="0.933" fill="#c9a227" stroke="#6b5416" stroke-width="0.4"/>
  <rect x="50.000" y="52.516" width="9.000" height="0.786" fill="#c9a227" stroke="#6b5416" stroke-width="0.4"/>
  <rect x="50.000" y="70.968" width="9.000" height="0.786" fill="#c9a227" stroke="#6b5416" stroke-width="0.4"/>
  <rect x="59.000" y="51.832" width="9.000" height="0.684" fill="#c9a227" stroke="#6b5416" stroke-width="0.4"/>
  <rect x="59.000" y="71.754" width="9.000" height="0.684" fill="#c9a227" stroke="#6b5416" stroke-width="0.4"/>
  <rect x="68.000" y="51.221" width="9.000" height="0.612" fill="#c9a227" stroke="#6b5416" stroke-width="0.4"/>
  <rect x="68.000" y="72.438" width="9.000" height="0.612" fill="#c9a227" stroke="#6b5416" stroke-width="0.4"/>
  <rect x="77.000" y="50.660" width="9.000" height="0.560" fill="#c9a227" stroke="#6b5416" stroke-width="0.4"/>
  <rect x="77.000" y="73.050" width="9.000" height="0.560" fill="#c9a227" stroke="#6b5416" stroke-width="0.4"/>
  <rect x="86.000" y="50.136" width="9.000" height="0.525" fill="#c9a227" stroke="#6b5416" stroke-width="0.4"/>
  <rect x="86.000" y="73.610" width="9.000" height="0.525" fill="#c9a227" stroke="#6b5416" stroke-width="0.4"/>
  <rect x="95.000" y="43.635" width="9.000" height="6.000" fill="#c9a227" stroke="#6b5416" stroke-width="0.4"/>
  <rect x="95.000" y="74.635" width="9.000" height="6.000" fill="#c9a227" stroke="#6b5416" stroke-width="0.4"/>
  <rect x="104.000" y="14.000" width="9.000" height="13.078" fill="#c9a227" stroke="#6b5416" stroke-width="0.4"/>
  <rect x="104.000" y="97.193" width="9.000" height="13.078" fill="#c9a227" stroke="#6b5416" stroke-width="0.4"/>
  <line x1="14.0" y1="62.1" x2="113.0" y2="62.1" stroke="#8a8f96" stroke-width="0.6" stroke-dasharray="6 3"/>
  <text x="14.0" y="120.3" font-family="ui-sans-serif,system-ui,sans-serif" font-size="7" fill="#334155">11 rings · ø6 bore to ø96.3 rim · 99mm long</text>
</svg>
