<?xml version="1.0" encoding="utf-8"?>
<svg xmlns="http://www.w3.org/2000/svg" width="524.20mm" height="130.40mm" viewBox="0 0 524.20 130.40">
<!-- Section 23. Two face plates (mirror images) and the
     side walls; every part carries the section number only.
     Inner cuts are the port and come before their outline.
     black #000000 cuts, blue #0000ff engraves. -->
<g transform="translate(12.000,12.000)"><g transform="translate(-10.000,-10.000)"><path d="M 13.100 72.200 H 16.600 H 19.500 V 75.100 C 19.500 75.155 19.545 75.200 19.600 75.200 H 31.600 C 31.655 75.200 31.700 75.155 31.700 75.100 V 72.200 H 34.600 H 38.100 C 38.155 72.200 38.200 72.155 38.200 72.100 V 65.700 H 41.100 C 41.155 65.700 41.200 65.655 41.200 65.600 V 59.600 C 41.200 59.545 41.155 59.500 41.100 59.500 H 38.200 V 53.700 H 41.100 C 41.155 53.700 41.200 53.655 41.200 53.600 V 47.600 C 41.200 47.545 41.155 47.500 41.100 47.500 H 38.200 V 41.100 V 38.200 H 41.100 H 51.000 V 41.100 C 51.000 41.155 51.045 41.200 51.100 41.200 H 57.100 C 57.155 41.200 57.200 41.155 57.200 41.100 V 38.200 H 63.000 V 41.100 C 63.000 41.155 63.045 41.200 63.100 41.200 H 69.100 C 69.155 41.200 69.200 41.155 69.200 41.100 V 38.200 H 75.000 V 41.100 C 75.000 41.155 75.045 41.200 75.100 41.200 H 81.100 C 81.155 41.200 81.200 41.155 81.200 41.100 V 38.200 H 87.000 V 41.100 C 87.000 41.155 87.045 41.200 87.100 41.200 H 93.100 C 93.155 41.200 93.200 41.155 93.200 41.100 V 38.200 H 103.100 H 106.000 V 41.100 V 47.500 H 103.100 C 103.045 47.500 103.000 47.545 103.000 47.600 V 53.600 C 103.000 53.655 103.045 53.700 103.100 53.700 H 106.000 V 59.500 H 103.100 C 103.045 59.500 103.000 59.545 103.000 59.600 V 65.600 C 103.000 65.655 103.045 65.700 103.100 65.700 H 106.000 V 72.100 C 106.000 72.155 106.045 72.200 106.100 72.200 H 112.600 C 112.655 72.200 112.700 72.155 112.700 72.100 V 71.900 V 69.000 H 115.600 H 121.600 H 124.500 V 71.900 V 72.100 C 124.500 72.155 124.545 72.200 124.600 72.200 H 131.100 C 131.155 72.200 131.200 72.155 131.200 72.100 V 63.700 H 134.100 C 134.155 63.700 134.200 63.655 134.200 63.600 V 57.600 C 134.200 57.545 134.155 57.500 134.100 57.500 H 131.200 V 51.700 H 134.100 C 134.155 51.700 134.200 51.655 134.200 51.600 V 45.600 C 134.200 45.545 134.155 45.500 134.100 45.500 H 131.200 V 39.700 H 134.100 C 134.155 39.700 134.200 39.655 134.200 39.600 V 33.600 C 134.200 33.545 134.155 33.500 134.100 33.500 H 131.200 V 27.700 H 134.100 C 134.155 27.700 134.200 27.655 134.200 27.600 V 21.600 C 134.200 21.545 134.155 21.500 134.100 21.500 H 131.200 V 13.100 C 131.200 13.045 131.155 13.000 131.100 13.000 H 123.200 V 10.100 C 123.200 10.045 123.155 10.000 123.100 10.000 H 117.100 C 117.045 10.000 117.000 10.045 117.000 10.100 V 13.000 H 111.200 V 10.100 C 111.200 10.045 111.155 10.000 111.100 10.000 H 105.100 C 105.045 10.000 105.000 10.045 105.000 10.100 V 13.000 H 99.200 V 10.100 C 99.200 10.045 99.155 10.000 99.100 10.000 H 93.100 C 93.045 10.000 93.000 10.045 93.000 10.100 V 13.000 H 87.200 V 10.100 C 87.200 10.045 87.155 10.000 87.100 10.000 H 81.100 C 81.045 10.000 81.000 10.045 81.000 10.100 V 13.000 H 75.200 V 10.100 C 75.200 10.045 75.155 10.000 75.100 10.000 H 69.100 C 69.045 10.000 69.000 10.045 69.000 10.100 V 13.000 H 63.200 V 10.100 C 63.200 10.045 63.155 10.000 63.100 10.000 H 57.100 C 57.045 10.000 57.000 10.045 57.000 10.100 V 13.000 H 51.200 V 10.100 C 51.200 10.045 51.155 10.000 51.100 10.000 H 45.100 C 45.045 10.000 45.000 10.045 45.000 10.100 V 13.000 H 39.200 V 10.100 C 39.200 10.045 39.155 10.000 39.100 10.000 H 33.100 C 33.045 10.000 33.000 10.045 33.000 10.100 V 13.000 H 27.200 V 10.100 C 27.200 10.045 27.155 10.000 27.100 10.000 H 21.100 C 21.045 10.000 21.000 10.045 21.000 10.100 V 13.000 H 13.100 C 13.045 13.000 13.000 13.045 13.000 13.100 V 21.500 H 10.100 C 10.045 21.500 10.000 21.545 10.000 21.600 V 27.600 C 10.000 27.655 10.045 27.700 10.100 27.700 H 13.000 V 33.500 H 10.100 C 10.045 33.500 10.000 33.545 10.000 33.600 V 39.600 C 10.000 39.655 10.045 39.700 10.100 39.700 H 13.000 V 45.500 H 10.100 C 10.045 45.500 10.000 45.545 10.000 45.600 V 51.600 C 10.000 51.655 10.045 51.700 10.100 51.700 H 13.000 V 57.500 H 10.100 C 10.045 57.500 10.000 57.545 10.000 57.600 V 63.600 C 10.000 63.655 10.045 63.700 10.100 63.700 H 13.000 V 72.100 C 13.000 72.155 13.045 72.200 13.100 72.200 Z" fill="none" stroke="#000000" stroke-width="0.2"/></g><g transform="translate(105.30,18.83)"><polyline points="0.10,-1.30 0.31,-1.67 0.72,-1.67 0.93,-1.30 0.93,-1.00 0.10,0.00 0.93,0.00" fill="none" stroke="#0000ff" stroke-width="0.3" stroke-linecap="round" stroke-linejoin="round"/><polyline points="1.47,-1.67 2.30,-1.67 1.83,-0.92" fill="none" stroke="#0000ff" stroke-width="0.3" stroke-linecap="round" stroke-linejoin="round"/><polyline points="1.83,-0.92 2.30,-0.92 2.30,-0.27 2.11,0.00 1.66,0.00 1.47,-0.27" fill="none" stroke="#0000ff" stroke-width="0.3" stroke-linecap="round" stroke-linejoin="round"/></g></g>
<g transform="translate(146.200,12.000)"><g transform="translate(-135.700,-10.000)"><path d="M 256.800 72.200 H 253.300 H 250.400 V 75.100 C 250.400 75.155 250.355 75.200 250.300 75.200 H 238.300 C 238.245 75.200 238.200 75.155 238.200 75.100 V 72.200 H 235.300 H 231.800 C 231.745 72.200 231.700 72.155 231.700 72.100 V 65.700 H 228.800 C 228.745 65.700 228.700 65.655 228.700 65.600 V 59.600 C 228.700 59.545 228.745 59.500 228.800 59.500 H 231.700 V 53.700 H 228.800 C 228.745 53.700 228.700 53.655 228.700 53.600 V 47.600 C 228.700 47.545 228.745 47.500 228.800 47.500 H 231.700 V 41.100 V 38.200 H 228.800 H 218.900 V 41.100 C 218.900 41.155 218.855 41.200 218.800 41.200 H 212.800 C 212.745 41.200 212.700 41.155 212.700 41.100 V 38.200 H 206.900 V 41.100 C 206.900 41.155 206.855 41.200 206.800 41.200 H 200.800 C 200.745 41.200 200.700 41.155 200.700 41.100 V 38.200 H 194.900 V 41.100 C 194.900 41.155 194.855 41.200 194.800 41.200 H 188.800 C 188.745 41.200 188.700 41.155 188.700 41.100 V 38.200 H 182.900 V 41.100 C 182.900 41.155 182.855 41.200 182.800 41.200 H 176.800 C 176.745 41.200 176.700 41.155 176.700 41.100 V 38.200 H 166.800 H 163.900 V 41.100 V 47.500 H 166.800 C 166.855 47.500 166.900 47.545 166.900 47.600 V 53.600 C 166.900 53.655 166.855 53.700 166.800 53.700 H 163.900 V 59.500 H 166.800 C 166.855 59.500 166.900 59.545 166.900 59.600 V 65.600 C 166.900 65.655 166.855 65.700 166.800 65.700 H 163.900 V 72.100 C 163.900 72.155 163.855 72.200 163.800 72.200 H 157.300 C 157.245 72.200 157.200 72.155 157.200 72.100 V 71.900 V 69.000 H 154.300 H 148.300 H 145.400 V 71.900 V 72.100 C 145.400 72.155 145.355 72.200 145.300 72.200 H 138.800 C 138.745 72.200 138.700 72.155 138.700 72.100 V 63.700 H 135.800 C 135.745 63.700 135.700 63.655 135.700 63.600 V 57.600 C 135.700 57.545 135.745 57.500 135.800 57.500 H 138.700 V 51.700 H 135.800 C 135.745 51.700 135.700 51.655 135.700 51.600 V 45.600 C 135.700 45.545 135.745 45.500 135.800 45.500 H 138.700 V 39.700 H 135.800 C 135.745 39.700 135.700 39.655 135.700 39.600 V 33.600 C 135.700 33.545 135.745 33.500 135.800 33.500 H 138.700 V 27.700 H 135.800 C 135.745 27.700 135.700 27.655 135.700 27.600 V 21.600 C 135.700 21.545 135.745 21.500 135.800 21.500 H 138.700 V 13.100 C 138.700 13.045 138.745 13.000 138.800 13.000 H 146.700 V 10.100 C 146.700 10.045 146.745 10.000 146.800 10.000 H 152.800 C 152.855 10.000 152.900 10.045 152.900 10.100 V 13.000 H 158.700 V 10.100 C 158.700 10.045 158.745 10.000 158.800 10.000 H 164.800 C 164.855 10.000 164.900 10.045 164.900 10.100 V 13.000 H 170.700 V 10.100 C 170.700 10.045 170.745 10.000 170.800 10.000 H 176.800 C 176.855 10.000 176.900 10.045 176.900 10.100 V 13.000 H 182.700 V 10.100 C 182.700 10.045 182.745 10.000 182.800 10.000 H 188.800 C 188.855 10.000 188.900 10.045 188.900 10.100 V 13.000 H 194.700 V 10.100 C 194.700 10.045 194.745 10.000 194.800 10.000 H 200.800 C 200.855 10.000 200.900 10.045 200.900 10.100 V 13.000 H 206.700 V 10.100 C 206.700 10.045 206.745 10.000 206.800 10.000 H 212.800 C 212.855 10.000 212.900 10.045 212.900 10.100 V 13.000 H 218.700 V 10.100 C 218.700 10.045 218.745 10.000 218.800 10.000 H 224.800 C 224.855 10.000 224.900 10.045 224.900 10.100 V 13.000 H 230.700 V 10.100 C 230.700 10.045 230.745 10.000 230.800 10.000 H 236.800 C 236.855 10.000 236.900 10.045 236.900 10.100 V 13.000 H 242.700 V 10.100 C 242.700 10.045 242.745 10.000 242.800 10.000 H 248.800 C 248.855 10.000 248.900 10.045 248.900 10.100 V 13.000 H 256.800 C 256.855 13.000 256.900 13.045 256.900 13.100 V 21.500 H 259.800 C 259.855 21.500 259.900 21.545 259.900 21.600 V 27.600 C 259.900 27.655 259.855 27.700 259.800 27.700 H 256.900 V 33.500 H 259.800 C 259.855 33.500 259.900 33.545 259.900 33.600 V 39.600 C 259.900 39.655 259.855 39.700 259.800 39.700 H 256.900 V 45.500 H 259.800 C 259.855 45.500 259.900 45.545 259.900 45.600 V 51.600 C 259.900 51.655 259.855 51.700 259.800 51.700 H 256.900 V 57.500 H 259.800 C 259.855 57.500 259.900 57.545 259.900 57.600 V 63.600 C 259.900 63.655 259.855 63.700 259.800 63.700 H 256.900 V 72.100 C 256.900 72.155 256.855 72.200 256.800 72.200 Z" fill="none" stroke="#000000" stroke-width="0.2"/></g><g transform="translate(105.30,18.83)"><polyline points="0.10,-1.30 0.31,-1.67 0.72,-1.67 0.93,-1.30 0.93,-1.00 0.10,0.00 0.93,0.00" fill="none" stroke="#0000ff" stroke-width="0.3" stroke-linecap="round" stroke-linejoin="round"/><polyline points="1.47,-1.67 2.30,-1.67 1.83,-0.92" fill="none" stroke="#0000ff" stroke-width="0.3" stroke-linecap="round" stroke-linejoin="round"/><polyline points="1.83,-0.92 2.30,-0.92 2.30,-0.27 2.11,0.00 1.66,0.00 1.47,-0.27" fill="none" stroke="#0000ff" stroke-width="0.3" stroke-linecap="round" stroke-linejoin="round"/></g></g>
<g transform="translate(280.400,12.000)"><g transform="translate(-262.250,-44.850)"><path d="M 265.350 76.050 H 271.850 C 271.905 76.050 271.950 76.005 271.950 75.950 V 73.050 H 277.750 V 75.950 C 277.750 76.005 277.795 76.050 277.850 76.050 H 283.850 C 283.905 76.050 283.950 76.005 283.950 75.950 V 73.050 H 289.750 V 75.950 C 289.750 76.005 289.795 76.050 289.850 76.050 H 296.350 H 299.350 C 299.405 76.050 299.450 76.005 299.450 75.950 V 72.950 V 63.450 C 299.450 63.395 299.405 63.350 299.350 63.350 H 296.450 V 57.550 H 299.350 C 299.405 57.550 299.450 57.505 299.450 57.450 V 47.950 V 44.950 C 299.450 44.895 299.405 44.850 299.350 44.850 H 296.350 H 289.850 C 289.795 44.850 289.750 44.895 289.750 44.950 V 47.850 H 283.950 V 44.950 C 283.950 44.895 283.905 44.850 283.850 44.850 H 277.850 C 277.795 44.850 277.750 44.895 277.750 44.950 V 47.850 H 271.950 V 44.950 C 271.950 44.895 271.905 44.850 271.850 44.850 H 265.350 C 265.295 44.850 265.250 44.895 265.250 44.950 V 47.950 V 54.350 H 262.350 C 262.295 54.350 262.250 54.395 262.250 54.450 V 66.450 C 262.250 66.505 262.295 66.550 262.350 66.550 H 265.250 V 72.950 V 75.950 C 265.250 76.005 265.295 76.050 265.350 76.050 Z" fill="none" stroke="#000000" stroke-width="0.2"/></g><g transform="translate(16.80,15.83)"><polyline points="0.10,-1.30 0.31,-1.67 0.72,-1.67 0.93,-1.30 0.93,-1.00 0.10,0.00 0.93,0.00" fill="none" stroke="#0000ff" stroke-width="0.3" stroke-linecap="round" stroke-linejoin="round"/><polyline points="1.47,-1.67 2.30,-1.67 1.83,-0.92" fill="none" stroke="#0000ff" stroke-width="0.3" stroke-linecap="round" stroke-linejoin="round"/><polyline points="1.83,-0.92 2.30,-0.92 2.30,-0.27 2.11,0.00 1.66,0.00 1.47,-0.27" fill="none" stroke="#0000ff" stroke-width="0.3" stroke-linecap="round" stroke-linejoin="round"/></g></g>
<g transform="translate(327.600,12.000)"><g transform="translate(-302.650,-44.850)"><path d="M 305.750 76.050 H 315.750 C 315.805 76.050 315.850 76.005 315.850 75.950 V 73.050 H 321.650 V 75.950 C 321.650 76.005 321.695 76.050 321.750 76.050 H 327.750 C 327.805 76.050 327.850 76.005 327.850 75.950 V 73.050 H 333.650 V 75.950 C 333.650 76.005 333.695 76.050 333.750 76.050 H 339.750 C 339.805 76.050 339.850 76.005 339.850 75.950 V 73.050 H 345.650 V 75.950 C 345.650 76.005 345.695 76.050 345.750 76.050 H 351.750 C 351.805 76.050 351.850 76.005 351.850 75.950 V 73.050 H 357.650 V 75.950 C 357.650 76.005 357.695 76.050 357.750 76.050 H 367.750 H 370.750 C 370.805 76.050 370.850 76.005 370.850 75.950 V 72.950 V 63.450 C 370.850 63.395 370.805 63.350 370.750 63.350 H 367.850 V 57.550 H 370.750 C 370.805 57.550 370.850 57.505 370.850 57.450 V 47.950 V 44.950 C 370.850 44.895 370.805 44.850 370.750 44.850 H 367.750 H 357.750 C 357.695 44.850 357.650 44.895 357.650 44.950 V 47.850 H 351.850 V 44.950 C 351.850 44.895 351.805 44.850 351.750 44.850 H 345.750 C 345.695 44.850 345.650 44.895 345.650 44.950 V 47.850 H 339.850 V 44.950 C 339.850 44.895 339.805 44.850 339.750 44.850 H 333.750 C 333.695 44.850 333.650 44.895 333.650 44.950 V 47.850 H 327.850 V 44.950 C 327.850 44.895 327.805 44.850 327.750 44.850 H 321.750 C 321.695 44.850 321.650 44.895 321.650 44.950 V 47.850 H 315.850 V 44.950 C 315.850 44.895 315.805 44.850 315.750 44.850 H 305.750 C 305.695 44.850 305.650 44.895 305.650 44.950 V 47.950 V 57.350 H 302.750 C 302.695 57.350 302.650 57.395 302.650 57.450 V 63.450 C 302.650 63.505 302.695 63.550 302.750 63.550 H 305.650 V 72.950 V 75.950 C 305.650 76.005 305.695 76.050 305.750 76.050 Z" fill="none" stroke="#000000" stroke-width="0.2"/></g><g transform="translate(21.30,15.83)"><polyline points="0.10,-1.30 0.31,-1.67 0.72,-1.67 0.93,-1.30 0.93,-1.00 0.10,0.00 0.93,0.00" fill="none" stroke="#0000ff" stroke-width="0.3" stroke-linecap="round" stroke-linejoin="round"/><polyline points="1.47,-1.67 2.30,-1.67 1.83,-0.92" fill="none" stroke="#0000ff" stroke-width="0.3" stroke-linecap="round" stroke-linejoin="round"/><polyline points="1.83,-0.92 2.30,-0.92 2.30,-0.27 2.11,0.00 1.66,0.00 1.47,-0.27" fill="none" stroke="#0000ff" stroke-width="0.3" stroke-linecap="round" stroke-linejoin="round"/></g></g>
<g transform="translate(405.800,12.000)"><g transform="translate(-374.050,-44.850)"><path d="M 377.150 76.050 H 383.650 C 383.705 76.050 383.750 76.005 383.750 75.950 V 73.050 H 389.550 V 75.950 C 389.550 76.005 389.595 76.050 389.650 76.050 H 395.650 C 395.705 76.050 395.750 76.005 395.750 75.950 V 73.050 H 401.550 V 75.950 C 401.550 76.005 401.595 76.050 401.650 76.050 H 408.150 C 408.205 76.050 408.250 76.005 408.250 75.950 V 72.950 V 66.450 C 408.250 66.395 408.205 66.350 408.150 66.350 H 405.050 V 54.550 H 408.150 C 408.205 54.550 408.250 54.505 408.250 54.450 V 47.950 V 44.950 C 408.250 44.895 408.205 44.850 408.150 44.850 H 401.650 C 401.595 44.850 401.550 44.895 401.550 44.950 V 47.850 H 395.750 V 44.950 C 395.750 44.895 395.705 44.850 395.650 44.850 H 389.650 C 389.595 44.850 389.550 44.895 389.550 44.950 V 47.850 H 383.750 V 44.950 C 383.750 44.895 383.705 44.850 383.650 44.850 H 377.150 C 377.095 44.850 377.050 44.895 377.050 44.950 V 47.950 V 57.350 H 374.150 C 374.095 57.350 374.050 57.395 374.050 57.450 V 63.450 C 374.050 63.505 374.095 63.550 374.150 63.550 H 377.050 V 72.950 V 75.950 C 377.050 76.005 377.095 76.050 377.150 76.050 Z" fill="none" stroke="#000000" stroke-width="0.2"/></g><g transform="translate(16.80,15.83)"><polyline points="0.10,-1.30 0.31,-1.67 0.72,-1.67 0.93,-1.30 0.93,-1.00 0.10,0.00 0.93,0.00" fill="none" stroke="#0000ff" stroke-width="0.3" stroke-linecap="round" stroke-linejoin="round"/><polyline points="1.47,-1.67 2.30,-1.67 1.83,-0.92" fill="none" stroke="#0000ff" stroke-width="0.3" stroke-linecap="round" stroke-linejoin="round"/><polyline points="1.83,-0.92 2.30,-0.92 2.30,-0.27 2.11,0.00 1.66,0.00 1.47,-0.27" fill="none" stroke="#0000ff" stroke-width="0.3" stroke-linecap="round" stroke-linejoin="round"/></g></g>
<g transform="translate(450.000,12.000)"><g transform="translate(-411.450,-44.850)"><path d="M 411.550 76.050 H 420.050 C 420.105 76.050 420.150 76.005 420.150 75.950 V 73.050 H 425.950 V 75.950 C 425.950 76.005 425.995 76.050 426.050 76.050 H 432.050 C 432.105 76.050 432.150 76.005 432.150 75.950 V 73.050 H 437.950 V 75.950 C 437.950 76.005 437.995 76.050 438.050 76.050 H 444.050 C 444.105 76.050 444.150 76.005 444.150 75.950 V 73.050 H 449.950 V 75.950 C 449.950 76.005 449.995 76.050 450.050 76.050 H 456.050 C 456.105 76.050 456.150 76.005 456.150 75.950 V 73.050 H 461.950 V 75.950 C 461.950 76.005 461.995 76.050 462.050 76.050 H 470.550 H 473.550 C 473.605 76.050 473.650 76.005 473.650 75.950 V 72.950 V 63.450 C 473.650 63.395 473.605 63.350 473.550 63.350 H 470.650 V 57.550 H 473.550 C 473.605 57.550 473.650 57.505 473.650 57.450 V 47.950 V 44.950 C 473.650 44.895 473.605 44.850 473.550 44.850 H 470.550 H 462.050 C 461.995 44.850 461.950 44.895 461.950 44.950 V 47.850 H 456.150 V 44.950 C 456.150 44.895 456.105 44.850 456.050 44.850 H 450.050 C 449.995 44.850 449.950 44.895 449.950 44.950 V 47.850 H 444.150 V 44.950 C 444.150 44.895 444.105 44.850 444.050 44.850 H 438.050 C 437.995 44.850 437.950 44.895 437.950 44.950 V 47.850 H 432.150 V 44.950 C 432.150 44.895 432.105 44.850 432.050 44.850 H 426.050 C 425.995 44.850 425.950 44.895 425.950 44.950 V 47.850 H 420.150 V 44.950 C 420.150 44.895 420.105 44.850 420.050 44.850 H 411.550 C 411.495 44.850 411.450 44.895 411.450 44.950 V 47.950 V 54.450 C 411.450 54.505 411.495 54.550 411.550 54.550 H 414.650 V 66.350 H 411.550 C 411.495 66.350 411.450 66.395 411.450 66.450 V 72.950 V 75.950 C 411.450 76.005 411.495 76.050 411.550 76.050 Z" fill="none" stroke="#000000" stroke-width="0.2"/></g><g transform="translate(16.80,15.83)"><polyline points="0.10,-1.30 0.31,-1.67 0.72,-1.67 0.93,-1.30 0.93,-1.00 0.10,0.00 0.93,0.00" fill="none" stroke="#0000ff" stroke-width="0.3" stroke-linecap="round" stroke-linejoin="round"/><polyline points="1.47,-1.67 2.30,-1.67 1.83,-0.92" fill="none" stroke="#0000ff" stroke-width="0.3" stroke-linecap="round" stroke-linejoin="round"/><polyline points="1.83,-0.92 2.30,-0.92 2.30,-0.27 2.11,0.00 1.66,0.00 1.47,-0.27" fill="none" stroke="#0000ff" stroke-width="0.3" stroke-linecap="round" stroke-linejoin="round"/></g></g>
<g transform="translate(12.000,87.200)"><g transform="translate(-476.850,-44.850)"><path d="M 479.950 76.050 H 487.950 C 488.005 76.050 488.050 76.005 488.050 75.950 V 73.050 H 493.850 V 75.950 C 493.850 76.005 493.895 76.050 493.950 76.050 H 499.950 C 500.005 76.050 500.050 76.005 500.050 75.950 V 73.050 H 505.850 V 75.950 C 505.850 76.005 505.895 76.050 505.950 76.050 H 511.950 C 512.005 76.050 512.050 76.005 512.050 75.950 V 73.050 H 517.850 V 75.950 C 517.850 76.005 517.895 76.050 517.950 76.050 H 523.950 C 524.005 76.050 524.050 76.005 524.050 75.950 V 73.050 H 529.850 V 75.950 C 529.850 76.005 529.895 76.050 529.950 76.050 H 535.950 C 536.005 76.050 536.050 76.005 536.050 75.950 V 73.050 H 541.850 V 75.950 C 541.850 76.005 541.895 76.050 541.950 76.050 H 547.950 C 548.005 76.050 548.050 76.005 548.050 75.950 V 73.050 H 553.850 V 75.950 C 553.850 76.005 553.895 76.050 553.950 76.050 H 559.950 C 560.005 76.050 560.050 76.005 560.050 75.950 V 73.050 H 565.850 V 75.950 C 565.850 76.005 565.895 76.050 565.950 76.050 H 571.950 C 572.005 76.050 572.050 76.005 572.050 75.950 V 73.050 H 577.850 V 75.950 C 577.850 76.005 577.895 76.050 577.950 76.050 H 583.950 C 584.005 76.050 584.050 76.005 584.050 75.950 V 73.050 H 589.850 V 75.950 C 589.850 76.005 589.895 76.050 589.950 76.050 H 597.950 H 600.950 C 601.005 76.050 601.050 76.005 601.050 75.950 V 72.950 V 63.450 C 601.050 63.395 601.005 63.350 600.950 63.350 H 598.050 V 57.550 H 600.950 C 601.005 57.550 601.050 57.505 601.050 57.450 V 47.950 V 44.950 C 601.050 44.895 601.005 44.850 600.950 44.850 H 597.950 H 589.950 C 589.895 44.850 589.850 44.895 589.850 44.950 V 47.850 H 584.050 V 44.950 C 584.050 44.895 584.005 44.850 583.950 44.850 H 577.950 C 577.895 44.850 577.850 44.895 577.850 44.950 V 47.850 H 572.050 V 44.950 C 572.050 44.895 572.005 44.850 571.950 44.850 H 565.950 C 565.895 44.850 565.850 44.895 565.850 44.950 V 47.850 H 560.050 V 44.950 C 560.050 44.895 560.005 44.850 559.950 44.850 H 553.950 C 553.895 44.850 553.850 44.895 553.850 44.950 V 47.850 H 548.050 V 44.950 C 548.050 44.895 548.005 44.850 547.950 44.850 H 541.950 C 541.895 44.850 541.850 44.895 541.850 44.950 V 47.850 H 536.050 V 44.950 C 536.050 44.895 536.005 44.850 535.950 44.850 H 529.950 C 529.895 44.850 529.850 44.895 529.850 44.950 V 47.850 H 524.050 V 44.950 C 524.050 44.895 524.005 44.850 523.950 44.850 H 517.950 C 517.895 44.850 517.850 44.895 517.850 44.950 V 47.850 H 512.050 V 44.950 C 512.050 44.895 512.005 44.850 511.950 44.850 H 505.950 C 505.895 44.850 505.850 44.895 505.850 44.950 V 47.850 H 500.050 V 44.950 C 500.050 44.895 500.005 44.850 499.950 44.850 H 493.950 C 493.895 44.850 493.850 44.895 493.850 44.950 V 47.850 H 488.050 V 44.950 C 488.050 44.895 488.005 44.850 487.950 44.850 H 479.950 C 479.895 44.850 479.850 44.895 479.850 44.950 V 47.950 V 57.350 H 476.950 C 476.895 57.350 476.850 57.395 476.850 57.450 V 63.450 C 476.850 63.505 476.895 63.550 476.950 63.550 H 479.850 V 72.950 V 75.950 C 479.850 76.005 479.895 76.050 479.950 76.050 Z" fill="none" stroke="#000000" stroke-width="0.2"/></g><g transform="translate(18.30,15.83)"><polyline points="0.10,-1.30 0.31,-1.67 0.72,-1.67 0.93,-1.30 0.93,-1.00 0.10,0.00 0.93,0.00" fill="none" stroke="#0000ff" stroke-width="0.3" stroke-linecap="round" stroke-linejoin="round"/><polyline points="1.47,-1.67 2.30,-1.67 1.83,-0.92" fill="none" stroke="#0000ff" stroke-width="0.3" stroke-linecap="round" stroke-linejoin="round"/><polyline points="1.83,-0.92 2.30,-0.92 2.30,-0.27 2.11,0.00 1.66,0.00 1.47,-0.27" fill="none" stroke="#0000ff" stroke-width="0.3" stroke-linecap="round" stroke-linejoin="round"/></g></g>
<g transform="translate(146.200,87.200)"><g transform="translate(-604.250,-44.850)"><path d="M 607.350 76.050 H 615.850 C 615.905 76.050 615.950 76.005 615.950 75.950 V 73.050 H 621.750 V 75.950 C 621.750 76.005 621.795 76.050 621.850 76.050 H 627.850 C 627.905 76.050 627.950 76.005 627.950 75.950 V 73.050 H 633.750 V 75.950 C 633.750 76.005 633.795 76.050 633.850 76.050 H 639.850 C 639.905 76.050 639.950 76.005 639.950 75.950 V 73.050 H 645.750 V 75.950 C 645.750 76.005 645.795 76.050 645.850 76.050 H 651.850 C 651.905 76.050 651.950 76.005 651.950 75.950 V 73.050 H 657.750 V 75.950 C 657.750 76.005 657.795 76.050 657.850 76.050 H 666.350 C 666.405 76.050 666.450 76.005 666.450 75.950 V 72.950 V 66.550 H 669.350 C 669.405 66.550 669.450 66.505 669.450 66.450 V 54.450 C 669.450 54.395 669.405 54.350 669.350 54.350 H 666.450 V 47.950 V 44.950 C 666.450 44.895 666.405 44.850 666.350 44.850 H 657.850 C 657.795 44.850 657.750 44.895 657.750 44.950 V 47.850 H 651.950 V 44.950 C 651.950 44.895 651.905 44.850 651.850 44.850 H 645.850 C 645.795 44.850 645.750 44.895 645.750 44.950 V 47.850 H 639.950 V 44.950 C 639.950 44.895 639.905 44.850 639.850 44.850 H 633.850 C 633.795 44.850 633.750 44.895 633.750 44.950 V 47.850 H 627.950 V 44.950 C 627.950 44.895 627.905 44.850 627.850 44.850 H 621.850 C 621.795 44.850 621.750 44.895 621.750 44.950 V 47.850 H 615.950 V 44.950 C 615.950 44.895 615.905 44.850 615.850 44.850 H 607.350 C 607.295 44.850 607.250 44.895 607.250 44.950 V 47.950 V 57.350 H 604.350 C 604.295 57.350 604.250 57.395 604.250 57.450 V 63.450 C 604.250 63.505 604.295 63.550 604.350 63.550 H 607.250 V 72.950 V 75.950 C 607.250 76.005 607.295 76.050 607.350 76.050 Z" fill="none" stroke="#000000" stroke-width="0.2"/></g><g transform="translate(19.80,15.83)"><polyline points="0.10,-1.30 0.31,-1.67 0.72,-1.67 0.93,-1.30 0.93,-1.00 0.10,0.00 0.93,0.00" fill="none" stroke="#0000ff" stroke-width="0.3" stroke-linecap="round" stroke-linejoin="round"/><polyline points="1.47,-1.67 2.30,-1.67 1.83,-0.92" fill="none" stroke="#0000ff" stroke-width="0.3" stroke-linecap="round" stroke-linejoin="round"/><polyline points="1.83,-0.92 2.30,-0.92 2.30,-0.27 2.11,0.00 1.66,0.00 1.47,-0.27" fill="none" stroke="#0000ff" stroke-width="0.3" stroke-linecap="round" stroke-linejoin="round"/></g></g>
</svg>
