<?xml version="1.0" encoding="utf-8"?>
<svg xmlns="http://www.w3.org/2000/svg" width="553.60mm" height="117.20mm" viewBox="0 0 553.60 117.20">
<title>trumpet-switchback bore - section 2 of 6, bend LUUR, 8 parts on 554x117mm</title>
<desc>1 user unit = 1mm. 25mm square bore in 3mm stock, so a 31mm block pitch. Blocks 4-8 of the walk, entering on W and leaving on E, a 2x3 block plate laid flat. Two face plates (mirror images) and the side walls; every part carries the section number only. Inner cuts are the port and come before their outline. black #000000 cuts, blue #0000ff engraves.</desc>
<g transform="translate(12.000,12.000)"><g transform="translate(-10.000,-10.000)"><path d="M 13.100 100.200 H 21.500 V 103.100 C 21.500 103.155 21.545 103.200 21.600 103.200 H 27.600 C 27.655 103.200 27.700 103.155 27.700 103.100 V 100.200 H 33.500 V 103.100 C 33.500 103.155 33.545 103.200 33.600 103.200 H 39.600 C 39.655 103.200 39.700 103.155 39.700 103.100 V 100.200 H 45.500 V 103.100 C 45.500 103.155 45.545 103.200 45.600 103.200 H 51.600 C 51.655 103.200 51.700 103.155 51.700 103.100 V 100.200 H 57.500 V 103.100 C 57.500 103.155 57.545 103.200 57.600 103.200 H 63.600 C 63.655 103.200 63.700 103.155 63.700 103.100 V 100.200 H 72.100 C 72.155 100.200 72.200 100.155 72.200 100.100 V 96.600 V 93.700 H 75.100 C 75.155 93.700 75.200 93.655 75.200 93.600 V 81.600 C 75.200 81.545 75.155 81.500 75.100 81.500 H 72.200 V 78.600 V 75.100 C 72.200 75.045 72.155 75.000 72.100 75.000 H 65.700 V 72.100 C 65.700 72.045 65.655 72.000 65.600 72.000 H 59.600 C 59.545 72.000 59.500 72.045 59.500 72.100 V 75.000 H 53.700 V 72.100 C 53.700 72.045 53.655 72.000 53.600 72.000 H 47.600 C 47.545 72.000 47.500 72.045 47.500 72.100 V 75.000 H 41.100 H 38.200 V 72.100 V 65.700 H 41.100 C 41.155 65.700 41.200 65.655 41.200 65.600 V 59.600 C 41.200 59.545 41.155 59.500 41.100 59.500 H 38.200 V 53.700 H 41.100 C 41.155 53.700 41.200 53.655 41.200 53.600 V 47.600 C 41.200 47.545 41.155 47.500 41.100 47.500 H 38.200 V 41.100 V 38.200 H 41.100 H 47.500 V 41.100 C 47.500 41.155 47.545 41.200 47.600 41.200 H 53.600 C 53.655 41.200 53.700 41.155 53.700 41.100 V 38.200 H 59.500 V 41.100 C 59.500 41.155 59.545 41.200 59.600 41.200 H 65.600 C 65.655 41.200 65.700 41.155 65.700 41.100 V 38.200 H 72.100 C 72.155 38.200 72.200 38.155 72.200 38.100 V 31.600 C 72.200 31.545 72.155 31.500 72.100 31.500 H 71.900 H 69.000 V 28.600 V 22.600 V 19.700 H 71.900 H 72.100 C 72.155 19.700 72.200 19.655 72.200 19.600 V 13.100 C 72.200 13.045 72.155 13.000 72.100 13.000 H 63.700 V 10.100 C 63.700 10.045 63.655 10.000 63.600 10.000 H 57.600 C 57.545 10.000 57.500 10.045 57.500 10.100 V 13.000 H 51.700 V 10.100 C 51.700 10.045 51.655 10.000 51.600 10.000 H 45.600 C 45.545 10.000 45.500 10.045 45.500 10.100 V 13.000 H 39.700 V 10.100 C 39.700 10.045 39.655 10.000 39.600 10.000 H 33.600 C 33.545 10.000 33.500 10.045 33.500 10.100 V 13.000 H 27.700 V 10.100 C 27.700 10.045 27.655 10.000 27.600 10.000 H 21.600 C 21.545 10.000 21.500 10.045 21.500 10.100 V 13.000 H 13.100 C 13.045 13.000 13.000 13.045 13.000 13.100 V 23.500 H 10.100 C 10.045 23.500 10.000 23.545 10.000 23.600 V 29.600 C 10.000 29.655 10.045 29.700 10.100 29.700 H 13.000 V 35.500 H 10.100 C 10.045 35.500 10.000 35.545 10.000 35.600 V 41.600 C 10.000 41.655 10.045 41.700 10.100 41.700 H 13.000 V 47.500 H 10.100 C 10.045 47.500 10.000 47.545 10.000 47.600 V 53.600 C 10.000 53.655 10.045 53.700 10.100 53.700 H 13.000 V 59.500 H 10.100 C 10.045 59.500 10.000 59.545 10.000 59.600 V 65.600 C 10.000 65.655 10.045 65.700 10.100 65.700 H 13.000 V 71.500 H 10.100 C 10.045 71.500 10.000 71.545 10.000 71.600 V 77.600 C 10.000 77.655 10.045 77.700 10.100 77.700 H 13.000 V 83.500 H 10.100 C 10.045 83.500 10.000 83.545 10.000 83.600 V 89.600 C 10.000 89.655 10.045 89.700 10.100 89.700 H 13.000 V 100.100 C 13.000 100.155 13.045 100.200 13.100 100.200 Z" fill="none" stroke="#000000" stroke-width="0.2"/></g><g transform="translate(17.17,18.83)"><polyline points="0.10,-1.30 0.31,-1.67 0.72,-1.67 0.93,-1.30 0.93,-1.00 0.10,0.00 0.93,0.00" fill="none" stroke="#0000ff" stroke-width="0.3" stroke-linecap="round" stroke-linejoin="round"/><polyline points="1.30,0.00 1.67,0.00" fill="none" stroke="#0000ff" stroke-width="0.3" stroke-linecap="round" stroke-linejoin="round"/></g></g>
<g transform="translate(87.200,12.000)"><g transform="translate(-76.700,-10.000)"><path d="M 138.800 100.200 H 130.400 V 103.100 C 130.400 103.155 130.355 103.200 130.300 103.200 H 124.300 C 124.245 103.200 124.200 103.155 124.200 103.100 V 100.200 H 118.400 V 103.100 C 118.400 103.155 118.355 103.200 118.300 103.200 H 112.300 C 112.245 103.200 112.200 103.155 112.200 103.100 V 100.200 H 106.400 V 103.100 C 106.400 103.155 106.355 103.200 106.300 103.200 H 100.300 C 100.245 103.200 100.200 103.155 100.200 103.100 V 100.200 H 94.400 V 103.100 C 94.400 103.155 94.355 103.200 94.300 103.200 H 88.300 C 88.245 103.200 88.200 103.155 88.200 103.100 V 100.200 H 79.800 C 79.745 100.200 79.700 100.155 79.700 100.100 V 96.600 V 93.700 H 76.800 C 76.745 93.700 76.700 93.655 76.700 93.600 V 81.600 C 76.700 81.545 76.745 81.500 76.800 81.500 H 79.700 V 78.600 V 75.100 C 79.700 75.045 79.745 75.000 79.800 75.000 H 86.200 V 72.100 C 86.200 72.045 86.245 72.000 86.300 72.000 H 92.300 C 92.355 72.000 92.400 72.045 92.400 72.100 V 75.000 H 98.200 V 72.100 C 98.200 72.045 98.245 72.000 98.300 72.000 H 104.300 C 104.355 72.000 104.400 72.045 104.400 72.100 V 75.000 H 110.800 H 113.700 V 72.100 V 65.700 H 110.800 C 110.745 65.700 110.700 65.655 110.700 65.600 V 59.600 C 110.700 59.545 110.745 59.500 110.800 59.500 H 113.700 V 53.700 H 110.800 C 110.745 53.700 110.700 53.655 110.700 53.600 V 47.600 C 110.700 47.545 110.745 47.500 110.800 47.500 H 113.700 V 41.100 V 38.200 H 110.800 H 104.400 V 41.100 C 104.400 41.155 104.355 41.200 104.300 41.200 H 98.300 C 98.245 41.200 98.200 41.155 98.200 41.100 V 38.200 H 92.400 V 41.100 C 92.400 41.155 92.355 41.200 92.300 41.200 H 86.300 C 86.245 41.200 86.200 41.155 86.200 41.100 V 38.200 H 79.800 C 79.745 38.200 79.700 38.155 79.700 38.100 V 31.600 C 79.700 31.545 79.745 31.500 79.800 31.500 H 80.000 H 82.900 V 28.600 V 22.600 V 19.700 H 80.000 H 79.800 C 79.745 19.700 79.700 19.655 79.700 19.600 V 13.100 C 79.700 13.045 79.745 13.000 79.800 13.000 H 88.200 V 10.100 C 88.200 10.045 88.245 10.000 88.300 10.000 H 94.300 C 94.355 10.000 94.400 10.045 94.400 10.100 V 13.000 H 100.200 V 10.100 C 100.200 10.045 100.245 10.000 100.300 10.000 H 106.300 C 106.355 10.000 106.400 10.045 106.400 10.100 V 13.000 H 112.200 V 10.100 C 112.200 10.045 112.245 10.000 112.300 10.000 H 118.300 C 118.355 10.000 118.400 10.045 118.400 10.100 V 13.000 H 124.200 V 10.100 C 124.200 10.045 124.245 10.000 124.300 10.000 H 130.300 C 130.355 10.000 130.400 10.045 130.400 10.100 V 13.000 H 138.800 C 138.855 13.000 138.900 13.045 138.900 13.100 V 23.500 H 141.800 C 141.855 23.500 141.900 23.545 141.900 23.600 V 29.600 C 141.900 29.655 141.855 29.700 141.800 29.700 H 138.900 V 35.500 H 141.800 C 141.855 35.500 141.900 35.545 141.900 35.600 V 41.600 C 141.900 41.655 141.855 41.700 141.800 41.700 H 138.900 V 47.500 H 141.800 C 141.855 47.500 141.900 47.545 141.900 47.600 V 53.600 C 141.900 53.655 141.855 53.700 141.800 53.700 H 138.900 V 59.500 H 141.800 C 141.855 59.500 141.900 59.545 141.900 59.600 V 65.600 C 141.900 65.655 141.855 65.700 141.800 65.700 H 138.900 V 71.500 H 141.800 C 141.855 71.500 141.900 71.545 141.900 71.600 V 77.600 C 141.900 77.655 141.855 77.700 141.800 77.700 H 138.900 V 83.500 H 141.800 C 141.855 83.500 141.900 83.545 141.900 83.600 V 89.600 C 141.900 89.655 141.855 89.700 141.800 89.700 H 138.900 V 100.100 C 138.900 100.155 138.855 100.200 138.800 100.200 Z" fill="none" stroke="#000000" stroke-width="0.2"/></g><g transform="translate(47.17,18.83)"><polyline points="0.10,-1.30 0.31,-1.67 0.72,-1.67 0.93,-1.30 0.93,-1.00 0.10,0.00 0.93,0.00" fill="none" stroke="#0000ff" stroke-width="0.3" stroke-linecap="round" stroke-linejoin="round"/><polyline points="1.30,0.00 1.67,0.00" fill="none" stroke="#0000ff" stroke-width="0.3" stroke-linecap="round" stroke-linejoin="round"/></g></g>
<g transform="translate(162.400,12.000)"><g transform="translate(-144.250,-72.850)"><path d="M 147.350 104.050 H 155.850 C 155.905 104.050 155.950 104.005 155.950 103.950 V 101.050 H 161.750 V 103.950 C 161.750 104.005 161.795 104.050 161.850 104.050 H 167.850 C 167.905 104.050 167.950 104.005 167.950 103.950 V 101.050 H 173.750 V 103.950 C 173.750 104.005 173.795 104.050 173.850 104.050 H 179.850 C 179.905 104.050 179.950 104.005 179.950 103.950 V 101.050 H 185.750 V 103.950 C 185.750 104.005 185.795 104.050 185.850 104.050 H 191.850 C 191.905 104.050 191.950 104.005 191.950 103.950 V 101.050 H 197.750 V 103.950 C 197.750 104.005 197.795 104.050 197.850 104.050 H 206.350 C 206.405 104.050 206.450 104.005 206.450 103.950 V 100.950 V 94.550 H 209.350 C 209.405 94.550 209.450 94.505 209.450 94.450 V 82.450 C 209.450 82.395 209.405 82.350 209.350 82.350 H 206.450 V 75.950 V 72.950 C 206.450 72.895 206.405 72.850 206.350 72.850 H 197.850 C 197.795 72.850 197.750 72.895 197.750 72.950 V 75.850 H 191.950 V 72.950 C 191.950 72.895 191.905 72.850 191.850 72.850 H 185.850 C 185.795 72.850 185.750 72.895 185.750 72.950 V 75.850 H 179.950 V 72.950 C 179.950 72.895 179.905 72.850 179.850 72.850 H 173.850 C 173.795 72.850 173.750 72.895 173.750 72.950 V 75.850 H 167.950 V 72.950 C 167.950 72.895 167.905 72.850 167.850 72.850 H 161.850 C 161.795 72.850 161.750 72.895 161.750 72.950 V 75.850 H 155.950 V 72.950 C 155.950 72.895 155.905 72.850 155.850 72.850 H 147.350 C 147.295 72.850 147.250 72.895 147.250 72.950 V 75.950 V 85.350 H 144.350 C 144.295 85.350 144.250 85.395 144.250 85.450 V 91.450 C 144.250 91.505 144.295 91.550 144.350 91.550 H 147.250 V 100.950 V 103.950 C 147.250 104.005 147.295 104.050 147.350 104.050 Z" fill="none" stroke="#000000" stroke-width="0.2"/></g><g transform="translate(20.17,15.83)"><polyline points="0.10,-1.30 0.31,-1.67 0.72,-1.67 0.93,-1.30 0.93,-1.00 0.10,0.00 0.93,0.00" fill="none" stroke="#0000ff" stroke-width="0.3" stroke-linecap="round" stroke-linejoin="round"/><polyline points="1.30,0.00 1.67,0.00" fill="none" stroke="#0000ff" stroke-width="0.3" stroke-linecap="round" stroke-linejoin="round"/></g></g>
<g transform="translate(237.600,12.000)"><g transform="translate(-212.650,-72.850)"><path d="M 215.750 104.050 H 222.250 C 222.305 104.050 222.350 104.005 222.350 103.950 V 101.050 H 228.150 V 103.950 C 228.150 104.005 228.195 104.050 228.250 104.050 H 234.250 C 234.305 104.050 234.350 104.005 234.350 103.950 V 101.050 H 240.150 V 103.950 C 240.150 104.005 240.195 104.050 240.250 104.050 H 246.750 H 249.750 C 249.805 104.050 249.850 104.005 249.850 103.950 V 100.950 V 91.450 C 249.850 91.395 249.805 91.350 249.750 91.350 H 246.850 V 85.550 H 249.750 C 249.805 85.550 249.850 85.505 249.850 85.450 V 75.950 V 72.950 C 249.850 72.895 249.805 72.850 249.750 72.850 H 246.750 H 240.250 C 240.195 72.850 240.150 72.895 240.150 72.950 V 75.850 H 234.350 V 72.950 C 234.350 72.895 234.305 72.850 234.250 72.850 H 228.250 C 228.195 72.850 228.150 72.895 228.150 72.950 V 75.850 H 222.350 V 72.950 C 222.350 72.895 222.305 72.850 222.250 72.850 H 215.750 C 215.695 72.850 215.650 72.895 215.650 72.950 V 75.950 V 82.350 H 212.750 C 212.695 82.350 212.650 82.395 212.650 82.450 V 94.450 C 212.650 94.505 212.695 94.550 212.750 94.550 H 215.650 V 100.950 V 103.950 C 215.650 104.005 215.695 104.050 215.750 104.050 Z" fill="none" stroke="#000000" stroke-width="0.2"/></g><g transform="translate(17.17,15.83)"><polyline points="0.10,-1.30 0.31,-1.67 0.72,-1.67 0.93,-1.30 0.93,-1.00 0.10,0.00 0.93,0.00" fill="none" stroke="#0000ff" stroke-width="0.3" stroke-linecap="round" stroke-linejoin="round"/><polyline points="1.30,0.00 1.67,0.00" fill="none" stroke="#0000ff" stroke-width="0.3" stroke-linecap="round" stroke-linejoin="round"/></g></g>
<g transform="translate(284.800,12.000)"><g transform="translate(-253.050,-72.850)"><path d="M 256.150 104.050 H 262.650 C 262.705 104.050 262.750 104.005 262.750 103.950 V 101.050 H 268.550 V 103.950 C 268.550 104.005 268.595 104.050 268.650 104.050 H 274.650 C 274.705 104.050 274.750 104.005 274.750 103.950 V 101.050 H 280.550 V 103.950 C 280.550 104.005 280.595 104.050 280.650 104.050 H 287.150 H 290.150 C 290.205 104.050 290.250 104.005 290.250 103.950 V 100.950 V 91.450 C 290.250 91.395 290.205 91.350 290.150 91.350 H 287.250 V 85.550 H 290.150 C 290.205 85.550 290.250 85.505 290.250 85.450 V 75.950 V 72.950 C 290.250 72.895 290.205 72.850 290.150 72.850 H 287.150 H 280.650 C 280.595 72.850 280.550 72.895 280.550 72.950 V 75.850 H 274.750 V 72.950 C 274.750 72.895 274.705 72.850 274.650 72.850 H 268.650 C 268.595 72.850 268.550 72.895 268.550 72.950 V 75.850 H 262.750 V 72.950 C 262.750 72.895 262.705 72.850 262.650 72.850 H 256.150 C 256.095 72.850 256.050 72.895 256.050 72.950 V 75.950 V 85.350 H 253.150 C 253.095 85.350 253.050 85.395 253.050 85.450 V 91.450 C 253.050 91.505 253.095 91.550 253.150 91.550 H 256.050 V 100.950 V 103.950 C 256.050 104.005 256.095 104.050 256.150 104.050 Z" fill="none" stroke="#000000" stroke-width="0.2"/></g><g transform="translate(17.17,15.83)"><polyline points="0.10,-1.30 0.31,-1.67 0.72,-1.67 0.93,-1.30 0.93,-1.00 0.10,0.00 0.93,0.00" fill="none" stroke="#0000ff" stroke-width="0.3" stroke-linecap="round" stroke-linejoin="round"/><polyline points="1.30,0.00 1.67,0.00" fill="none" stroke="#0000ff" stroke-width="0.3" stroke-linecap="round" stroke-linejoin="round"/></g></g>
<g transform="translate(332.000,12.000)"><g transform="translate(-293.450,-72.850)"><path d="M 296.550 104.050 H 303.050 C 303.105 104.050 303.150 104.005 303.150 103.950 V 101.050 H 308.950 V 103.950 C 308.950 104.005 308.995 104.050 309.050 104.050 H 315.050 C 315.105 104.050 315.150 104.005 315.150 103.950 V 101.050 H 320.950 V 103.950 C 320.950 104.005 320.995 104.050 321.050 104.050 H 327.550 C 327.605 104.050 327.650 104.005 327.650 103.950 V 100.950 V 94.450 C 327.650 94.395 327.605 94.350 327.550 94.350 H 324.450 V 82.550 H 327.550 C 327.605 82.550 327.650 82.505 327.650 82.450 V 75.950 V 72.950 C 327.650 72.895 327.605 72.850 327.550 72.850 H 321.050 C 320.995 72.850 320.950 72.895 320.950 72.950 V 75.850 H 315.150 V 72.950 C 315.150 72.895 315.105 72.850 315.050 72.850 H 309.050 C 308.995 72.850 308.950 72.895 308.950 72.950 V 75.850 H 303.150 V 72.950 C 303.150 72.895 303.105 72.850 303.050 72.850 H 296.550 C 296.495 72.850 296.450 72.895 296.450 72.950 V 75.950 V 85.350 H 293.550 C 293.495 85.350 293.450 85.395 293.450 85.450 V 91.450 C 293.450 91.505 293.495 91.550 293.550 91.550 H 296.450 V 100.950 V 103.950 C 296.450 104.005 296.495 104.050 296.550 104.050 Z" fill="none" stroke="#000000" stroke-width="0.2"/></g><g transform="translate(17.17,15.83)"><polyline points="0.10,-1.30 0.31,-1.67 0.72,-1.67 0.93,-1.30 0.93,-1.00 0.10,0.00 0.93,0.00" fill="none" stroke="#0000ff" stroke-width="0.3" stroke-linecap="round" stroke-linejoin="round"/><polyline points="1.30,0.00 1.67,0.00" fill="none" stroke="#0000ff" stroke-width="0.3" stroke-linecap="round" stroke-linejoin="round"/></g></g>
<g transform="translate(376.200,12.000)"><g transform="translate(-330.850,-72.850)"><path d="M 330.950 104.050 H 339.450 C 339.505 104.050 339.550 104.005 339.550 103.950 V 101.050 H 345.350 V 103.950 C 345.350 104.005 345.395 104.050 345.450 104.050 H 351.450 C 351.505 104.050 351.550 104.005 351.550 103.950 V 101.050 H 357.350 V 103.950 C 357.350 104.005 357.395 104.050 357.450 104.050 H 363.450 C 363.505 104.050 363.550 104.005 363.550 103.950 V 101.050 H 369.350 V 103.950 C 369.350 104.005 369.395 104.050 369.450 104.050 H 375.450 C 375.505 104.050 375.550 104.005 375.550 103.950 V 101.050 H 381.350 V 103.950 C 381.350 104.005 381.395 104.050 381.450 104.050 H 389.950 H 392.950 C 393.005 104.050 393.050 104.005 393.050 103.950 V 100.950 V 91.450 C 393.050 91.395 393.005 91.350 392.950 91.350 H 390.050 V 85.550 H 392.950 C 393.005 85.550 393.050 85.505 393.050 85.450 V 75.950 V 72.950 C 393.050 72.895 393.005 72.850 392.950 72.850 H 389.950 H 381.450 C 381.395 72.850 381.350 72.895 381.350 72.950 V 75.850 H 375.550 V 72.950 C 375.550 72.895 375.505 72.850 375.450 72.850 H 369.450 C 369.395 72.850 369.350 72.895 369.350 72.950 V 75.850 H 363.550 V 72.950 C 363.550 72.895 363.505 72.850 363.450 72.850 H 357.450 C 357.395 72.850 357.350 72.895 357.350 72.950 V 75.850 H 351.550 V 72.950 C 351.550 72.895 351.505 72.850 351.450 72.850 H 345.450 C 345.395 72.850 345.350 72.895 345.350 72.950 V 75.850 H 339.550 V 72.950 C 339.550 72.895 339.505 72.850 339.450 72.850 H 330.950 C 330.895 72.850 330.850 72.895 330.850 72.950 V 75.950 V 82.450 C 330.850 82.505 330.895 82.550 330.950 82.550 H 334.050 V 94.350 H 330.950 C 330.895 94.350 330.850 94.395 330.850 94.450 V 100.950 V 103.950 C 330.850 104.005 330.895 104.050 330.950 104.050 Z" fill="none" stroke="#000000" stroke-width="0.2"/></g><g transform="translate(17.17,15.83)"><polyline points="0.10,-1.30 0.31,-1.67 0.72,-1.67 0.93,-1.30 0.93,-1.00 0.10,0.00 0.93,0.00" fill="none" stroke="#0000ff" stroke-width="0.3" stroke-linecap="round" stroke-linejoin="round"/><polyline points="1.30,0.00 1.67,0.00" fill="none" stroke="#0000ff" stroke-width="0.3" stroke-linecap="round" stroke-linejoin="round"/></g></g>
<g transform="translate(448.400,12.000)"><g transform="translate(-396.250,-72.850)"><path d="M 399.350 104.050 H 409.850 C 409.905 104.050 409.950 104.005 409.950 103.950 V 101.050 H 415.750 V 103.950 C 415.750 104.005 415.795 104.050 415.850 104.050 H 421.850 C 421.905 104.050 421.950 104.005 421.950 103.950 V 101.050 H 427.750 V 103.950 C 427.750 104.005 427.795 104.050 427.850 104.050 H 433.850 C 433.905 104.050 433.950 104.005 433.950 103.950 V 101.050 H 439.750 V 103.950 C 439.750 104.005 439.795 104.050 439.850 104.050 H 445.850 C 445.905 104.050 445.950 104.005 445.950 103.950 V 101.050 H 451.750 V 103.950 C 451.750 104.005 451.795 104.050 451.850 104.050 H 457.850 C 457.905 104.050 457.950 104.005 457.950 103.950 V 101.050 H 463.750 V 103.950 C 463.750 104.005 463.795 104.050 463.850 104.050 H 469.850 C 469.905 104.050 469.950 104.005 469.950 103.950 V 101.050 H 475.750 V 103.950 C 475.750 104.005 475.795 104.050 475.850 104.050 H 486.350 H 489.350 C 489.405 104.050 489.450 104.005 489.450 103.950 V 100.950 V 91.450 C 489.450 91.395 489.405 91.350 489.350 91.350 H 486.450 V 85.550 H 489.350 C 489.405 85.550 489.450 85.505 489.450 85.450 V 75.950 V 72.950 C 489.450 72.895 489.405 72.850 489.350 72.850 H 486.350 H 475.850 C 475.795 72.850 475.750 72.895 475.750 72.950 V 75.850 H 469.950 V 72.950 C 469.950 72.895 469.905 72.850 469.850 72.850 H 463.850 C 463.795 72.850 463.750 72.895 463.750 72.950 V 75.850 H 457.950 V 72.950 C 457.950 72.895 457.905 72.850 457.850 72.850 H 451.850 C 451.795 72.850 451.750 72.895 451.750 72.950 V 75.850 H 445.950 V 72.950 C 445.950 72.895 445.905 72.850 445.850 72.850 H 439.850 C 439.795 72.850 439.750 72.895 439.750 72.950 V 75.850 H 433.950 V 72.950 C 433.950 72.895 433.905 72.850 433.850 72.850 H 427.850 C 427.795 72.850 427.750 72.895 427.750 72.950 V 75.850 H 421.950 V 72.950 C 421.950 72.895 421.905 72.850 421.850 72.850 H 415.850 C 415.795 72.850 415.750 72.895 415.750 72.950 V 75.850 H 409.950 V 72.950 C 409.950 72.895 409.905 72.850 409.850 72.850 H 399.350 C 399.295 72.850 399.250 72.895 399.250 72.950 V 75.950 V 85.350 H 396.350 C 396.295 85.350 396.250 85.395 396.250 85.450 V 91.450 C 396.250 91.505 396.295 91.550 396.350 91.550 H 399.250 V 100.950 V 103.950 C 399.250 104.005 399.295 104.050 399.350 104.050 Z" fill="none" stroke="#000000" stroke-width="0.2"/></g><g transform="translate(21.67,15.83)"><polyline points="0.10,-1.30 0.31,-1.67 0.72,-1.67 0.93,-1.30 0.93,-1.00 0.10,0.00 0.93,0.00" fill="none" stroke="#0000ff" stroke-width="0.3" stroke-linecap="round" stroke-linejoin="round"/><polyline points="1.30,0.00 1.67,0.00" fill="none" stroke="#0000ff" stroke-width="0.3" stroke-linecap="round" stroke-linejoin="round"/></g></g>
</svg>
