<?xml version="1.0" encoding="utf-8"?>
<svg xmlns="http://www.w3.org/2000/svg" width="578.84mm" height="96.52mm" viewBox="0 0 578.84 96.52">
<title>Ribbon bore, spiral - the wall panels - 10mm square bore, 45 degree facets</title>
<desc>1 user unit = 1mm. the wall panels. A duct of constant 10 x 10mm section swept along a planar curve; the two cheeks are the same part and both go on the same way up. 38 wall panels in all, numbered along the flow. The airway is exact along every facet and 8.2% over at each mitre. 3mm ply, 0.13mm kerf, 0.025mm play per side taken out of the slot and never off the tab. blue #0000ff engraves, orange #ff8000 cuts the slots first, black #000000 frees the parts.</desc>
  <g id="numbers" fill="none" stroke="#0000ff" stroke-width="0.2">
    <path d="M 19.668,17.169 L 20.105,16.465 L 20.105,19.665"/>
    <path d="M 19.629,19.665 L 20.621,19.665"/>
    <path d="M 21.569,19.665 L 22.273,19.665"/>
    <path d="M 45.009,17.169 L 45.406,16.465 L 46.200,16.465 L 46.596,17.169 L 46.596,17.745 L 45.009,19.665 L 46.596,19.665"/>
    <path d="M 47.307,19.665 L 48.011,19.665"/>
    <path d="M 72.569,16.465 L 74.156,16.465 L 73.263,17.905"/>
    <path d="M 73.263,17.905 L 74.156,17.905 L 74.156,19.153 L 73.799,19.665 L 72.926,19.665 L 72.569,19.153"/>
    <path d="M 74.867,19.665 L 75.571,19.665"/>
    <path d="M 103.405,19.665 L 103.405,16.465 L 102.254,18.641 L 103.842,18.641"/>
    <path d="M 104.512,19.665 L 105.216,19.665"/>
    <path d="M 137.091,16.465 L 135.802,16.465 L 135.702,17.905 L 136.397,17.681 L 136.992,18.065 L 137.151,18.769 L 136.893,19.473 L 136.198,19.665 L 135.702,19.281"/>
    <path d="M 137.901,19.665 L 138.605,19.665"/>
    <path d="M 174.163,16.721 L 173.627,16.465 L 173.032,16.945 L 172.834,18.225 L 172.834,19.089 L 173.230,19.665 L 173.766,19.665 L 174.222,19.089 L 174.222,18.449 L 173.766,17.905 L 173.131,17.905 L 172.834,18.225"/>
    <path d="M 175.032,19.665 L 175.736,19.665"/>
    <path d="M 213.648,16.465 L 215.195,16.465 L 214.243,19.665"/>
    <path d="M 215.906,19.665 L 216.610,19.665"/>
    <path d="M 259.018,17.905 L 258.463,17.489 L 258.463,16.881 L 259.018,16.465 L 259.574,16.881 L 259.574,17.489 L 259.018,17.905 L 258.384,18.385 L 258.384,19.217 L 259.018,19.665 L 259.653,19.217 L 259.653,18.385 L 259.018,17.905"/>
    <path d="M 260.522,19.665 L 261.226,19.665"/>
    <path d="M 306.743,19.409 L 307.278,19.665 L 307.874,19.185 L 308.072,17.905 L 308.072,17.041 L 307.675,16.465 L 307.140,16.465 L 306.683,17.041 L 306.683,17.681 L 307.140,18.225 L 307.774,18.225 L 308.072,17.905"/>
    <path d="M 308.882,19.665 L 309.586,19.665"/>
    <path d="M 358.686,19.665 L 359.480,16.465 L 360.273,19.665"/>
    <path d="M 359.003,18.385 L 359.956,18.385"/>
    <path d="M 360.984,19.665 L 361.688,19.665"/>
    <path d="M 414.630,19.665 L 414.630,16.465 L 415.681,16.465 L 416.078,17.009 L 416.078,17.489 L 415.681,17.905 L 414.630,17.905"/>
    <path d="M 414.630,17.905 L 415.761,17.905 L 416.118,18.385 L 416.118,19.153 L 415.721,19.665 L 414.630,19.665"/>
    <path d="M 416.828,19.665 L 417.532,19.665"/>
    <path d="M 475.705,17.105 L 475.308,16.465 L 474.515,16.465 L 474.118,17.105 L 474.118,19.025 L 474.515,19.665 L 475.308,19.665 L 475.705,19.025"/>
    <path d="M 476.415,19.665 L 477.119,19.665"/>
    <path d="M 537.547,19.665 L 537.547,16.465 L 538.400,16.465 L 538.995,17.297 L 538.995,18.833 L 538.400,19.665 L 537.547,19.665"/>
    <path d="M 539.745,19.665 L 540.449,19.665"/>
    <path d="M 43.266,36.595 L 41.778,36.595 L 41.778,39.795 L 43.266,39.795"/>
    <path d="M 41.778,38.195 L 42.829,38.195"/>
    <path d="M 43.976,39.795 L 44.680,39.795"/>
    <path d="M 114.041,36.595 L 112.593,36.595 L 112.593,39.795"/>
    <path d="M 112.593,38.131 L 113.645,38.131"/>
    <path d="M 114.791,39.795 L 115.495,39.795"/>
    <path d="M 186.169,37.299 L 186.605,36.595 L 186.605,39.795"/>
    <path d="M 186.129,39.795 L 187.121,39.795"/>
    <path d="M 189.125,36.595 L 189.820,37.235 L 189.820,39.155 L 189.125,39.795 L 188.431,39.155 L 188.431,37.235 L 189.125,36.595"/>
    <path d="M 190.629,39.795 L 191.333,39.795"/>
    <path d="M 264.469,37.299 L 264.906,36.595 L 264.906,39.795"/>
    <path d="M 264.430,39.795 L 265.422,39.795"/>
    <path d="M 267.029,37.299 L 267.466,36.595 L 267.466,39.795"/>
    <path d="M 266.990,39.795 L 267.982,39.795"/>
    <path d="M 268.930,39.795 L 269.634,39.795"/>
    <path d="M 348.170,37.299 L 348.606,36.595 L 348.606,39.795"/>
    <path d="M 348.130,39.795 L 349.122,39.795"/>
    <path d="M 350.333,37.299 L 350.730,36.595 L 351.523,36.595 L 351.920,37.299 L 351.920,37.875 L 350.333,39.795 L 351.920,39.795"/>
    <path d="M 352.631,39.795 L 353.335,39.795"/>
    <path d="M 403.849,37.299 L 404.285,36.595 L 404.285,39.795"/>
    <path d="M 403.809,39.795 L 404.801,39.795"/>
    <path d="M 406.012,36.595 L 407.599,36.595 L 406.707,38.035"/>
    <path d="M 406.707,38.035 L 407.599,38.035 L 407.599,39.283 L 407.242,39.795 L 406.369,39.795 L 406.012,39.283"/>
    <path d="M 408.310,39.795 L 409.014,39.795"/>
    <path d="M 427.979,37.299 L 428.415,36.595 L 428.415,39.795"/>
    <path d="M 427.939,39.795 L 428.931,39.795"/>
    <path d="M 431.333,39.795 L 431.333,36.595 L 430.182,38.771 L 431.769,38.771"/>
    <path d="M 432.440,39.795 L 433.144,39.795"/>
    <path d="M 456.409,37.299 L 456.846,36.595 L 456.846,39.795"/>
    <path d="M 456.369,39.795 L 457.361,39.795"/>
    <path d="M 460.060,36.595 L 458.771,36.595 L 458.671,38.035 L 459.366,37.811 L 459.961,38.195 L 460.120,38.899 L 459.862,39.603 L 459.167,39.795 L 458.671,39.411"/>
    <path d="M 460.870,39.795 L 461.574,39.795"/>
    <path d="M 492.046,37.299 L 492.483,36.595 L 492.483,39.795"/>
    <path d="M 492.007,39.795 L 492.999,39.795"/>
    <path d="M 495.638,36.851 L 495.102,36.595 L 494.507,37.075 L 494.309,38.355 L 494.309,39.219 L 494.705,39.795 L 495.241,39.795 L 495.697,39.219 L 495.697,38.579 L 495.241,38.035 L 494.606,38.035 L 494.309,38.355"/>
    <path d="M 496.507,39.795 L 497.211,39.795"/>
    <path d="M 532.462,37.299 L 532.898,36.595 L 532.898,39.795"/>
    <path d="M 532.422,39.795 L 533.414,39.795"/>
    <path d="M 534.664,36.595 L 536.212,36.595 L 535.260,39.795"/>
    <path d="M 536.922,39.795 L 537.626,39.795"/>
    <path d="M 29.338,57.429 L 29.774,56.725 L 29.774,59.925"/>
    <path d="M 29.298,59.925 L 30.290,59.925"/>
    <path d="M 32.295,58.165 L 31.739,57.749 L 31.739,57.141 L 32.295,56.725 L 32.850,57.141 L 32.850,57.749 L 32.295,58.165 L 31.660,58.645 L 31.660,59.477 L 32.295,59.925 L 32.930,59.477 L 32.930,58.645 L 32.295,58.165"/>
    <path d="M 33.799,59.925 L 34.503,59.925"/>
    <path d="M 77.239,57.429 L 77.675,56.725 L 77.675,59.925"/>
    <path d="M 77.199,59.925 L 78.191,59.925"/>
    <path d="M 79.561,59.669 L 80.096,59.925 L 80.691,59.445 L 80.890,58.165 L 80.890,57.301 L 80.493,56.725 L 79.957,56.725 L 79.501,57.301 L 79.501,57.941 L 79.957,58.485 L 80.592,58.485 L 80.890,58.165"/>
    <path d="M 81.699,59.925 L 82.403,59.925"/>
    <path d="M 128.882,57.429 L 129.318,56.725 L 129.318,59.925"/>
    <path d="M 128.842,59.925 L 129.834,59.925"/>
    <path d="M 131.045,59.925 L 131.839,56.725 L 132.632,59.925"/>
    <path d="M 131.363,58.645 L 132.315,58.645"/>
    <path d="M 133.343,59.925 L 134.047,59.925"/>
    <path d="M 184.268,57.429 L 184.705,56.725 L 184.705,59.925"/>
    <path d="M 184.228,59.925 L 185.220,59.925"/>
    <path d="M 186.530,59.925 L 186.530,56.725 L 187.582,56.725 L 187.979,57.269 L 187.979,57.749 L 187.582,58.165 L 186.530,58.165"/>
    <path d="M 186.530,58.165 L 187.661,58.165 L 188.018,58.645 L 188.018,59.413 L 187.622,59.925 L 186.530,59.925"/>
    <path d="M 188.729,59.925 L 189.433,59.925"/>
    <path d="M 243.397,57.429 L 243.833,56.725 L 243.833,59.925"/>
    <path d="M 243.357,59.925 L 244.349,59.925"/>
    <path d="M 247.147,57.365 L 246.750,56.725 L 245.957,56.725 L 245.560,57.365 L 245.560,59.285 L 245.957,59.925 L 246.750,59.925 L 247.147,59.285"/>
    <path d="M 247.858,59.925 L 248.562,59.925"/>
    <path d="M 306.268,57.429 L 306.705,56.725 L 306.705,59.925"/>
    <path d="M 306.229,59.925 L 307.221,59.925"/>
    <path d="M 308.531,59.925 L 308.531,56.725 L 309.384,56.725 L 309.979,57.557 L 309.979,59.093 L 309.384,59.925 L 308.531,59.925"/>
    <path d="M 310.729,59.925 L 311.433,59.925"/>
    <path d="M 372.882,57.429 L 373.319,56.725 L 373.319,59.925"/>
    <path d="M 372.843,59.925 L 373.835,59.925"/>
    <path d="M 376.633,56.725 L 375.145,56.725 L 375.145,59.925 L 376.633,59.925"/>
    <path d="M 375.145,58.325 L 376.196,58.325"/>
    <path d="M 377.343,59.925 L 378.047,59.925"/>
    <path d="M 443.239,57.429 L 443.676,56.725 L 443.676,59.925"/>
    <path d="M 443.200,59.925 L 444.192,59.925"/>
    <path d="M 446.950,56.725 L 445.502,56.725 L 445.502,59.925"/>
    <path d="M 445.502,58.261 L 446.553,58.261"/>
    <path d="M 447.700,59.925 L 448.404,59.925"/>
    <path d="M 516.942,57.429 L 517.339,56.725 L 518.132,56.725 L 518.529,57.429 L 518.529,58.005 L 516.942,59.925 L 518.529,59.925"/>
    <path d="M 520.296,56.725 L 520.990,57.365 L 520.990,59.285 L 520.296,59.925 L 519.601,59.285 L 519.601,57.365 L 520.296,56.725"/>
    <path d="M 521.800,59.925 L 522.504,59.925"/>
    <path d="M 45.783,77.559 L 46.180,76.855 L 46.974,76.855 L 47.370,77.559 L 47.370,78.135 L 45.783,80.055 L 47.370,80.055"/>
    <path d="M 48.740,77.559 L 49.176,76.855 L 49.176,80.055"/>
    <path d="M 48.700,80.055 L 49.692,80.055"/>
    <path d="M 50.641,80.055 L 51.345,80.055"/>
    <path d="M 127.368,77.559 L 127.765,76.855 L 128.559,76.855 L 128.955,77.559 L 128.955,78.135 L 127.368,80.055 L 128.955,80.055"/>
    <path d="M 129.928,77.559 L 130.325,76.855 L 131.119,76.855 L 131.515,77.559 L 131.515,78.135 L 129.928,80.055 L 131.515,80.055"/>
    <path d="M 132.226,80.055 L 132.930,80.055"/>
    <path d="M 212.696,77.559 L 213.093,76.855 L 213.886,76.855 L 214.283,77.559 L 214.283,78.135 L 212.696,80.055 L 214.283,80.055"/>
    <path d="M 215.256,76.855 L 216.843,76.855 L 215.950,78.295"/>
    <path d="M 215.950,78.295 L 216.843,78.295 L 216.843,79.543 L 216.486,80.055 L 215.613,80.055 L 215.256,79.543"/>
    <path d="M 217.553,80.055 L 218.257,80.055"/>
    <path d="M 301.766,77.559 L 302.163,76.855 L 302.956,76.855 L 303.353,77.559 L 303.353,78.135 L 301.766,80.055 L 303.353,80.055"/>
    <path d="M 305.516,80.055 L 305.516,76.855 L 304.366,79.031 L 305.953,79.031"/>
    <path d="M 306.624,80.055 L 307.328,80.055"/>
    <path d="M 393.544,77.559 L 393.940,76.855 L 394.734,76.855 L 395.131,77.559 L 395.131,78.135 L 393.544,80.055 L 395.131,80.055"/>
    <path d="M 397.592,76.855 L 396.302,76.855 L 396.203,78.295 L 396.897,78.071 L 397.492,78.455 L 397.651,79.159 L 397.393,79.863 L 396.699,80.055 L 396.203,79.671"/>
    <path d="M 398.401,80.055 L 399.105,80.055"/>
    <path d="M 451.915,77.559 L 452.312,76.855 L 453.106,76.855 L 453.502,77.559 L 453.502,78.135 L 451.915,80.055 L 453.502,80.055"/>
    <path d="M 455.904,77.111 L 455.368,76.855 L 454.773,77.335 L 454.574,78.615 L 454.574,79.479 L 454.971,80.055 L 455.507,80.055 L 455.963,79.479 L 455.963,78.839 L 455.507,78.295 L 454.872,78.295 L 454.574,78.615"/>
    <path d="M 456.773,80.055 L 457.477,80.055"/>
  </g>
  <g id="outlines" fill="none" stroke="#000000" stroke-width="0.2">
    <path d="M 10.000,13.000 L 17.000,13.000 L 17.000,10.000 L 23.130,10.000 L 23.130,13.000 L 30.130,13.000 L 30.130,23.130 L 23.130,23.130 L 23.130,26.130 L 17.000,26.130 L 17.000,23.130 L 10.000,23.130 Z"/>
    <path d="M 34.130,13.000 L 36.738,13.000 L 36.738,10.000 L 42.868,10.000 L 42.868,13.000 L 48.738,13.000 L 48.738,10.000 L 54.868,10.000 L 54.868,13.000 L 57.475,13.000 L 57.475,23.130 L 54.868,23.130 L 54.868,26.130 L 48.738,26.130 L 48.738,23.130 L 42.868,23.130 L 42.868,26.130 L 36.738,26.130 L 36.738,23.130 L 34.130,23.130 Z"/>
    <path d="M 61.475,13.000 L 64.298,13.000 L 64.298,10.000 L 70.428,10.000 L 70.428,13.000 L 76.298,13.000 L 76.298,10.000 L 82.428,10.000 L 82.428,13.000 L 85.250,13.000 L 85.250,23.130 L 82.428,23.130 L 82.428,26.130 L 76.298,26.130 L 76.298,23.130 L 70.428,23.130 L 70.428,26.130 L 64.298,26.130 L 64.298,23.130 L 61.475,23.130 Z"/>
    <path d="M 89.250,13.000 L 93.943,13.000 L 93.943,10.000 L 100.073,10.000 L 100.073,13.000 L 105.943,13.000 L 105.943,10.000 L 112.073,10.000 L 112.073,13.000 L 116.767,13.000 L 116.767,23.130 L 112.073,23.130 L 112.073,26.130 L 105.943,26.130 L 105.943,23.130 L 100.073,23.130 L 100.073,26.130 L 93.943,26.130 L 93.943,23.130 L 89.250,23.130 Z"/>
    <path d="M 120.767,13.000 L 127.332,13.000 L 127.332,10.000 L 133.462,10.000 L 133.462,13.000 L 139.332,13.000 L 139.332,10.000 L 145.462,10.000 L 145.462,13.000 L 152.027,13.000 L 152.027,23.130 L 145.462,23.130 L 145.462,26.130 L 139.332,26.130 L 139.332,23.130 L 133.462,23.130 L 133.462,26.130 L 127.332,26.130 L 127.332,23.130 L 120.767,23.130 Z"/>
    <path d="M 156.027,13.000 L 158.463,13.000 L 158.463,10.000 L 164.593,10.000 L 164.593,13.000 L 170.463,13.000 L 170.463,10.000 L 176.593,10.000 L 176.593,13.000 L 182.463,13.000 L 182.463,10.000 L 188.593,10.000 L 188.593,13.000 L 191.029,13.000 L 191.029,23.130 L 188.593,23.130 L 188.593,26.130 L 182.463,26.130 L 182.463,23.130 L 176.593,23.130 L 176.593,26.130 L 170.463,26.130 L 170.463,23.130 L 164.593,23.130 L 164.593,26.130 L 158.463,26.130 L 158.463,23.130 L 156.027,23.130 Z"/>
    <path d="M 195.029,13.000 L 199.337,13.000 L 199.337,10.000 L 205.467,10.000 L 205.467,13.000 L 211.337,13.000 L 211.337,10.000 L 217.467,10.000 L 217.467,13.000 L 223.337,13.000 L 223.337,10.000 L 229.467,10.000 L 229.467,13.000 L 233.774,13.000 L 233.774,23.130 L 229.467,23.130 L 229.467,26.130 L 223.337,26.130 L 223.337,23.130 L 217.467,23.130 L 217.467,26.130 L 211.337,26.130 L 211.337,23.130 L 205.467,23.130 L 205.467,26.130 L 199.337,26.130 L 199.337,23.130 L 195.029,23.130 Z"/>
    <path d="M 237.774,13.000 L 243.953,13.000 L 243.953,10.000 L 250.083,10.000 L 250.083,13.000 L 255.953,13.000 L 255.953,10.000 L 262.083,10.000 L 262.083,13.000 L 267.953,13.000 L 267.953,10.000 L 274.083,10.000 L 274.083,13.000 L 280.262,13.000 L 280.262,23.130 L 274.083,23.130 L 274.083,26.130 L 267.953,26.130 L 267.953,23.130 L 262.083,23.130 L 262.083,26.130 L 255.953,26.130 L 255.953,23.130 L 250.083,23.130 L 250.083,26.130 L 243.953,26.130 L 243.953,23.130 L 237.774,23.130 Z"/>
    <path d="M 284.262,13.000 L 286.313,13.000 L 286.313,10.000 L 292.443,10.000 L 292.443,13.000 L 298.313,13.000 L 298.313,10.000 L 304.443,10.000 L 304.443,13.000 L 310.313,13.000 L 310.313,10.000 L 316.443,10.000 L 316.443,13.000 L 322.313,13.000 L 322.313,10.000 L 328.443,10.000 L 328.443,13.000 L 330.493,13.000 L 330.493,23.130 L 328.443,23.130 L 328.443,26.130 L 322.313,26.130 L 322.313,23.130 L 316.443,23.130 L 316.443,26.130 L 310.313,26.130 L 310.313,23.130 L 304.443,23.130 L 304.443,26.130 L 298.313,26.130 L 298.313,23.130 L 292.443,23.130 L 292.443,26.130 L 286.313,26.130 L 286.313,23.130 L 284.262,23.130 Z"/>
    <path d="M 334.493,13.000 L 338.415,13.000 L 338.415,10.000 L 344.545,10.000 L 344.545,13.000 L 350.415,13.000 L 350.415,10.000 L 356.545,10.000 L 356.545,13.000 L 362.415,13.000 L 362.415,10.000 L 368.545,10.000 L 368.545,13.000 L 374.415,13.000 L 374.415,10.000 L 380.545,10.000 L 380.545,13.000 L 384.466,13.000 L 384.466,23.130 L 380.545,23.130 L 380.545,26.130 L 374.415,26.130 L 374.415,23.130 L 368.545,23.130 L 368.545,26.130 L 362.415,26.130 L 362.415,23.130 L 356.545,23.130 L 356.545,26.130 L 350.415,26.130 L 350.415,23.130 L 344.545,23.130 L 344.545,26.130 L 338.415,26.130 L 338.415,23.130 L 334.493,23.130 Z"/>
    <path d="M 388.466,13.000 L 394.259,13.000 L 394.259,10.000 L 400.389,10.000 L 400.389,13.000 L 406.259,13.000 L 406.259,10.000 L 412.389,10.000 L 412.389,13.000 L 418.259,13.000 L 418.259,10.000 L 424.389,10.000 L 424.389,13.000 L 430.259,13.000 L 430.259,10.000 L 436.389,10.000 L 436.389,13.000 L 442.182,13.000 L 442.182,23.130 L 436.389,23.130 L 436.389,26.130 L 430.259,26.130 L 430.259,23.130 L 424.389,23.130 L 424.389,26.130 L 418.259,26.130 L 418.259,23.130 L 412.389,23.130 L 412.389,26.130 L 406.259,26.130 L 406.259,23.130 L 400.389,23.130 L 400.389,26.130 L 394.259,26.130 L 394.259,23.130 L 388.466,23.130 Z"/>
    <path d="M 446.182,13.000 L 453.846,13.000 L 453.846,10.000 L 459.976,10.000 L 459.976,13.000 L 465.846,13.000 L 465.846,10.000 L 471.976,10.000 L 471.976,13.000 L 477.846,13.000 L 477.846,10.000 L 483.976,10.000 L 483.976,13.000 L 489.846,13.000 L 489.846,10.000 L 495.976,10.000 L 495.976,13.000 L 503.641,13.000 L 503.641,23.130 L 495.976,23.130 L 495.976,26.130 L 489.846,26.130 L 489.846,23.130 L 483.976,23.130 L 483.976,26.130 L 477.846,26.130 L 477.846,23.130 L 471.976,23.130 L 471.976,26.130 L 465.846,26.130 L 465.846,23.130 L 459.976,23.130 L 459.976,26.130 L 453.846,26.130 L 453.846,23.130 L 446.182,23.130 Z"/>
    <path d="M 507.641,13.000 L 511.176,13.000 L 511.176,10.000 L 517.306,10.000 L 517.306,13.000 L 523.176,13.000 L 523.176,10.000 L 529.306,10.000 L 529.306,13.000 L 535.176,13.000 L 535.176,10.000 L 541.306,10.000 L 541.306,13.000 L 547.176,13.000 L 547.176,10.000 L 553.306,10.000 L 553.306,13.000 L 559.176,13.000 L 559.176,10.000 L 565.306,10.000 L 565.306,13.000 L 568.842,13.000 L 568.842,23.130 L 565.306,23.130 L 565.306,26.130 L 559.176,26.130 L 559.176,23.130 L 553.306,23.130 L 553.306,26.130 L 547.176,26.130 L 547.176,23.130 L 541.306,23.130 L 541.306,26.130 L 535.176,26.130 L 535.176,23.130 L 529.306,23.130 L 529.306,26.130 L 523.176,26.130 L 523.176,23.130 L 517.306,23.130 L 517.306,26.130 L 511.176,26.130 L 511.176,23.130 L 507.641,23.130 Z"/>
    <path d="M 10.000,33.130 L 15.407,33.130 L 15.407,30.130 L 21.537,30.130 L 21.537,33.130 L 27.407,33.130 L 27.407,30.130 L 33.537,30.130 L 33.537,33.130 L 39.407,33.130 L 39.407,30.130 L 45.537,30.130 L 45.537,33.130 L 51.407,33.130 L 51.407,30.130 L 57.537,30.130 L 57.537,33.130 L 63.407,33.130 L 63.407,30.130 L 69.537,30.130 L 69.537,33.130 L 74.944,33.130 L 74.944,43.260 L 69.537,43.260 L 69.537,46.260 L 63.407,46.260 L 63.407,43.260 L 57.537,43.260 L 57.537,46.260 L 51.407,46.260 L 51.407,43.260 L 45.537,43.260 L 45.537,46.260 L 39.407,46.260 L 39.407,43.260 L 33.537,43.260 L 33.537,46.260 L 27.407,46.260 L 27.407,43.260 L 21.537,43.260 L 21.537,46.260 L 15.407,46.260 L 15.407,43.260 L 10.000,43.260 Z"/>
    <path d="M 78.944,33.130 L 86.222,33.130 L 86.222,30.130 L 92.352,30.130 L 92.352,33.130 L 98.222,33.130 L 98.222,30.130 L 104.352,30.130 L 104.352,33.130 L 110.222,33.130 L 110.222,30.130 L 116.352,30.130 L 116.352,33.130 L 122.222,33.130 L 122.222,30.130 L 128.352,30.130 L 128.352,33.130 L 134.222,33.130 L 134.222,30.130 L 140.352,30.130 L 140.352,33.130 L 147.631,33.130 L 147.631,43.260 L 140.352,43.260 L 140.352,46.260 L 134.222,46.260 L 134.222,43.260 L 128.352,43.260 L 128.352,46.260 L 122.222,46.260 L 122.222,43.260 L 116.352,43.260 L 116.352,46.260 L 110.222,46.260 L 110.222,43.260 L 104.352,43.260 L 104.352,46.260 L 98.222,46.260 L 98.222,43.260 L 92.352,43.260 L 92.352,46.260 L 86.222,46.260 L 86.222,43.260 L 78.944,43.260 Z"/>
    <path d="M 151.631,33.130 L 154.780,33.130 L 154.780,30.130 L 160.910,30.130 L 160.910,33.130 L 166.780,33.130 L 166.780,30.130 L 172.910,30.130 L 172.910,33.130 L 178.780,33.130 L 178.780,30.130 L 184.910,30.130 L 184.910,33.130 L 190.780,33.130 L 190.780,30.130 L 196.910,30.130 L 196.910,33.130 L 202.780,33.130 L 202.780,30.130 L 208.910,30.130 L 208.910,33.130 L 214.780,33.130 L 214.780,30.130 L 220.910,30.130 L 220.910,33.130 L 224.060,33.130 L 224.060,43.260 L 220.910,43.260 L 220.910,46.260 L 214.780,46.260 L 214.780,43.260 L 208.910,43.260 L 208.910,46.260 L 202.780,46.260 L 202.780,43.260 L 196.910,43.260 L 196.910,46.260 L 190.780,46.260 L 190.780,43.260 L 184.910,43.260 L 184.910,46.260 L 178.780,46.260 L 178.780,43.260 L 172.910,43.260 L 172.910,46.260 L 166.780,46.260 L 166.780,43.260 L 160.910,43.260 L 160.910,46.260 L 154.780,46.260 L 154.780,43.260 L 151.631,43.260 Z"/>
    <path d="M 228.060,33.130 L 233.081,33.130 L 233.081,30.130 L 239.211,30.130 L 239.211,33.130 L 245.081,33.130 L 245.081,30.130 L 251.211,30.130 L 251.211,33.130 L 257.081,33.130 L 257.081,30.130 L 263.211,30.130 L 263.211,33.130 L 269.081,33.130 L 269.081,30.130 L 275.211,30.130 L 275.211,33.130 L 281.081,33.130 L 281.081,30.130 L 287.211,30.130 L 287.211,33.130 L 293.081,33.130 L 293.081,30.130 L 299.211,30.130 L 299.211,33.130 L 304.232,33.130 L 304.232,43.260 L 299.211,43.260 L 299.211,46.260 L 293.081,46.260 L 293.081,43.260 L 287.211,43.260 L 287.211,46.260 L 281.081,46.260 L 281.081,43.260 L 275.211,43.260 L 275.211,46.260 L 269.081,46.260 L 269.081,43.260 L 263.211,43.260 L 263.211,46.260 L 257.081,46.260 L 257.081,43.260 L 251.211,43.260 L 251.211,46.260 L 245.081,46.260 L 245.081,43.260 L 239.211,43.260 L 239.211,46.260 L 233.081,46.260 L 233.081,43.260 L 228.060,43.260 Z"/>
    <path d="M 308.232,33.130 L 310.782,33.130 L 310.782,30.130 L 316.912,30.130 L 316.912,33.130 L 322.782,33.130 L 322.782,30.130 L 328.912,30.130 L 328.912,33.130 L 334.782,33.130 L 334.782,30.130 L 340.912,30.130 L 340.912,33.130 L 346.782,33.130 L 346.782,30.130 L 352.912,30.130 L 352.912,33.130 L 358.782,33.130 L 358.782,30.130 L 364.912,30.130 L 364.912,33.130 L 370.782,33.130 L 370.782,30.130 L 376.912,30.130 L 376.912,33.130 L 382.782,33.130 L 382.782,30.130 L 388.912,30.130 L 388.912,33.130 L 391.461,33.130 L 391.461,43.260 L 388.912,43.260 L 388.912,46.260 L 382.782,46.260 L 382.782,43.260 L 376.912,43.260 L 376.912,46.260 L 370.782,46.260 L 370.782,43.260 L 364.912,43.260 L 364.912,46.260 L 358.782,46.260 L 358.782,43.260 L 352.912,43.260 L 352.912,46.260 L 346.782,46.260 L 346.782,43.260 L 340.912,43.260 L 340.912,46.260 L 334.782,46.260 L 334.782,43.260 L 328.912,43.260 L 328.912,46.260 L 322.782,46.260 L 322.782,43.260 L 316.912,43.260 L 316.912,46.260 L 310.782,46.260 L 310.782,43.260 L 308.232,43.260 Z"/>
    <path d="M 395.461,33.130 L 402.461,33.130 L 402.461,30.130 L 408.591,30.130 L 408.591,33.130 L 415.591,33.130 L 415.591,43.260 L 408.591,43.260 L 408.591,46.260 L 402.461,46.260 L 402.461,43.260 L 395.461,43.260 Z"/>
    <path d="M 419.591,33.130 L 426.591,33.130 L 426.591,30.130 L 432.721,30.130 L 432.721,33.130 L 439.721,33.130 L 439.721,43.260 L 432.721,43.260 L 432.721,46.260 L 426.591,46.260 L 426.591,43.260 L 419.591,43.260 Z"/>
    <path d="M 443.721,33.130 L 449.021,33.130 L 449.021,30.130 L 455.151,30.130 L 455.151,33.130 L 461.021,33.130 L 461.021,30.130 L 467.151,30.130 L 467.151,33.130 L 472.451,33.130 L 472.451,43.260 L 467.151,43.260 L 467.151,46.260 L 461.021,46.260 L 461.021,43.260 L 455.151,43.260 L 455.151,46.260 L 449.021,46.260 L 449.021,43.260 L 443.721,43.260 Z"/>
    <path d="M 476.451,33.130 L 478.658,33.130 L 478.658,30.130 L 484.788,30.130 L 484.788,33.130 L 490.658,33.130 L 490.658,30.130 L 496.788,30.130 L 496.788,33.130 L 502.658,33.130 L 502.658,30.130 L 508.788,30.130 L 508.788,33.130 L 510.995,33.130 L 510.995,43.260 L 508.788,43.260 L 508.788,46.260 L 502.658,46.260 L 502.658,43.260 L 496.788,43.260 L 496.788,46.260 L 490.658,46.260 L 490.658,43.260 L 484.788,43.260 L 484.788,46.260 L 478.658,46.260 L 478.658,43.260 L 476.451,43.260 Z"/>
    <path d="M 514.995,33.130 L 519.073,33.130 L 519.073,30.130 L 525.203,30.130 L 525.203,33.130 L 531.073,33.130 L 531.073,30.130 L 537.203,30.130 L 537.203,33.130 L 543.073,33.130 L 543.073,30.130 L 549.203,30.130 L 549.203,33.130 L 553.282,33.130 L 553.282,43.260 L 549.203,43.260 L 549.203,46.260 L 543.073,46.260 L 543.073,43.260 L 537.203,43.260 L 537.203,46.260 L 531.073,46.260 L 531.073,43.260 L 525.203,43.260 L 525.203,46.260 L 519.073,46.260 L 519.073,43.260 L 514.995,43.260 Z"/>
    <path d="M 10.000,53.260 L 15.950,53.260 L 15.950,50.260 L 22.080,50.260 L 22.080,53.260 L 27.950,53.260 L 27.950,50.260 L 34.080,50.260 L 34.080,53.260 L 39.950,53.260 L 39.950,50.260 L 46.080,50.260 L 46.080,53.260 L 52.029,53.260 L 52.029,63.390 L 46.080,63.390 L 46.080,66.390 L 39.950,66.390 L 39.950,63.390 L 34.080,63.390 L 34.080,66.390 L 27.950,66.390 L 27.950,63.390 L 22.080,63.390 L 22.080,66.390 L 15.950,66.390 L 15.950,63.390 L 10.000,63.390 Z"/>
    <path d="M 56.029,53.260 L 63.850,53.260 L 63.850,50.260 L 69.980,50.260 L 69.980,53.260 L 75.850,53.260 L 75.850,50.260 L 81.980,50.260 L 81.980,53.260 L 87.850,53.260 L 87.850,50.260 L 93.980,50.260 L 93.980,53.260 L 101.801,53.260 L 101.801,63.390 L 93.980,63.390 L 93.980,66.390 L 87.850,66.390 L 87.850,63.390 L 81.980,63.390 L 81.980,66.390 L 75.850,66.390 L 75.850,63.390 L 69.980,63.390 L 69.980,66.390 L 63.850,66.390 L 63.850,63.390 L 56.029,63.390 Z"/>
    <path d="M 105.801,53.260 L 109.494,53.260 L 109.494,50.260 L 115.624,50.260 L 115.624,53.260 L 121.494,53.260 L 121.494,50.260 L 127.624,50.260 L 127.624,53.260 L 133.494,53.260 L 133.494,50.260 L 139.624,50.260 L 139.624,53.260 L 145.494,53.260 L 145.494,50.260 L 151.624,50.260 L 151.624,53.260 L 155.316,53.260 L 155.316,63.390 L 151.624,63.390 L 151.624,66.390 L 145.494,66.390 L 145.494,63.390 L 139.624,63.390 L 139.624,66.390 L 133.494,66.390 L 133.494,63.390 L 127.624,63.390 L 127.624,66.390 L 121.494,66.390 L 121.494,63.390 L 115.624,63.390 L 115.624,66.390 L 109.494,66.390 L 109.494,63.390 L 105.801,63.390 Z"/>
    <path d="M 159.316,53.260 L 164.880,53.260 L 164.880,50.260 L 171.010,50.260 L 171.010,53.260 L 176.880,53.260 L 176.880,50.260 L 183.010,50.260 L 183.010,53.260 L 188.880,53.260 L 188.880,50.260 L 195.010,50.260 L 195.010,53.260 L 200.880,53.260 L 200.880,50.260 L 207.010,50.260 L 207.010,53.260 L 212.574,53.260 L 212.574,63.390 L 207.010,63.390 L 207.010,66.390 L 200.880,66.390 L 200.880,63.390 L 195.010,63.390 L 195.010,66.390 L 188.880,66.390 L 188.880,63.390 L 183.010,63.390 L 183.010,66.390 L 176.880,66.390 L 176.880,63.390 L 171.010,63.390 L 171.010,66.390 L 164.880,66.390 L 164.880,63.390 L 159.316,63.390 Z"/>
    <path d="M 216.574,53.260 L 224.009,53.260 L 224.009,50.260 L 230.139,50.260 L 230.139,53.260 L 236.009,53.260 L 236.009,50.260 L 242.139,50.260 L 242.139,53.260 L 248.009,53.260 L 248.009,50.260 L 254.139,50.260 L 254.139,53.260 L 260.009,53.260 L 260.009,50.260 L 266.139,50.260 L 266.139,53.260 L 273.574,53.260 L 273.574,63.390 L 266.139,63.390 L 266.139,66.390 L 260.009,66.390 L 260.009,63.390 L 254.139,63.390 L 254.139,66.390 L 248.009,66.390 L 248.009,63.390 L 242.139,63.390 L 242.139,66.390 L 236.009,66.390 L 236.009,63.390 L 230.139,63.390 L 230.139,66.390 L 224.009,66.390 L 224.009,63.390 L 216.574,63.390 Z"/>
    <path d="M 277.574,53.260 L 280.880,53.260 L 280.880,50.260 L 287.010,50.260 L 287.010,53.260 L 292.880,53.260 L 292.880,50.260 L 299.010,50.260 L 299.010,53.260 L 304.880,53.260 L 304.880,50.260 L 311.010,50.260 L 311.010,53.260 L 316.880,53.260 L 316.880,50.260 L 323.010,50.260 L 323.010,53.260 L 328.880,53.260 L 328.880,50.260 L 335.010,50.260 L 335.010,53.260 L 338.317,53.260 L 338.317,63.390 L 335.010,63.390 L 335.010,66.390 L 328.880,66.390 L 328.880,63.390 L 323.010,63.390 L 323.010,66.390 L 316.880,66.390 L 316.880,63.390 L 311.010,63.390 L 311.010,66.390 L 304.880,66.390 L 304.880,63.390 L 299.010,63.390 L 299.010,66.390 L 292.880,66.390 L 292.880,63.390 L 287.010,63.390 L 287.010,66.390 L 280.880,66.390 L 280.880,63.390 L 277.574,63.390 Z"/>
    <path d="M 342.317,53.260 L 347.494,53.260 L 347.494,50.260 L 353.624,50.260 L 353.624,53.260 L 359.494,53.260 L 359.494,50.260 L 365.624,50.260 L 365.624,53.260 L 371.494,53.260 L 371.494,50.260 L 377.624,50.260 L 377.624,53.260 L 383.494,53.260 L 383.494,50.260 L 389.624,50.260 L 389.624,53.260 L 395.494,53.260 L 395.494,50.260 L 401.624,50.260 L 401.624,53.260 L 406.802,53.260 L 406.802,63.390 L 401.624,63.390 L 401.624,66.390 L 395.494,66.390 L 395.494,63.390 L 389.624,63.390 L 389.624,66.390 L 383.494,66.390 L 383.494,63.390 L 377.624,63.390 L 377.624,66.390 L 371.494,66.390 L 371.494,63.390 L 365.624,63.390 L 365.624,66.390 L 359.494,66.390 L 359.494,63.390 L 353.624,63.390 L 353.624,66.390 L 347.494,66.390 L 347.494,63.390 L 342.317,63.390 Z"/>
    <path d="M 410.802,53.260 L 417.851,53.260 L 417.851,50.260 L 423.981,50.260 L 423.981,53.260 L 429.851,53.260 L 429.851,50.260 L 435.981,50.260 L 435.981,53.260 L 441.851,53.260 L 441.851,50.260 L 447.981,50.260 L 447.981,53.260 L 453.851,53.260 L 453.851,50.260 L 459.981,50.260 L 459.981,53.260 L 465.851,53.260 L 465.851,50.260 L 471.981,50.260 L 471.981,53.260 L 479.030,53.260 L 479.030,63.390 L 471.981,63.390 L 471.981,66.390 L 465.851,66.390 L 465.851,63.390 L 459.981,63.390 L 459.981,66.390 L 453.851,66.390 L 453.851,63.390 L 447.981,63.390 L 447.981,66.390 L 441.851,66.390 L 441.851,63.390 L 435.981,63.390 L 435.981,66.390 L 429.851,66.390 L 429.851,63.390 L 423.981,63.390 L 423.981,66.390 L 417.851,66.390 L 417.851,63.390 L 410.802,63.390 Z"/>
    <path d="M 483.030,53.260 L 485.951,53.260 L 485.951,50.260 L 492.081,50.260 L 492.081,53.260 L 497.951,53.260 L 497.951,50.260 L 504.081,50.260 L 504.081,53.260 L 509.951,53.260 L 509.951,50.260 L 516.081,50.260 L 516.081,53.260 L 521.951,53.260 L 521.951,50.260 L 528.081,50.260 L 528.081,53.260 L 533.951,53.260 L 533.951,50.260 L 540.081,50.260 L 540.081,53.260 L 545.951,53.260 L 545.951,50.260 L 552.081,50.260 L 552.081,53.260 L 555.001,53.260 L 555.001,63.390 L 552.081,63.390 L 552.081,66.390 L 545.951,66.390 L 545.951,63.390 L 540.081,63.390 L 540.081,66.390 L 533.951,66.390 L 533.951,63.390 L 528.081,63.390 L 528.081,66.390 L 521.951,66.390 L 521.951,63.390 L 516.081,63.390 L 516.081,66.390 L 509.951,66.390 L 509.951,63.390 L 504.081,63.390 L 504.081,66.390 L 497.951,66.390 L 497.951,63.390 L 492.081,63.390 L 492.081,66.390 L 485.951,66.390 L 485.951,63.390 L 483.030,63.390 Z"/>
    <path d="M 10.000,73.390 L 14.792,73.390 L 14.792,70.390 L 20.922,70.390 L 20.922,73.390 L 26.792,73.390 L 26.792,70.390 L 32.922,70.390 L 32.922,73.390 L 38.792,73.390 L 38.792,70.390 L 44.922,70.390 L 44.922,73.390 L 50.792,73.390 L 50.792,70.390 L 56.922,70.390 L 56.922,73.390 L 62.792,73.390 L 62.792,70.390 L 68.922,70.390 L 68.922,73.390 L 74.792,73.390 L 74.792,70.390 L 80.922,70.390 L 80.922,73.390 L 85.714,73.390 L 85.714,83.520 L 80.922,83.520 L 80.922,86.520 L 74.792,86.520 L 74.792,83.520 L 68.922,83.520 L 68.922,86.520 L 62.792,86.520 L 62.792,83.520 L 56.922,83.520 L 56.922,86.520 L 50.792,86.520 L 50.792,83.520 L 44.922,83.520 L 44.922,86.520 L 38.792,86.520 L 38.792,83.520 L 32.922,83.520 L 32.922,86.520 L 26.792,86.520 L 26.792,83.520 L 20.922,83.520 L 20.922,86.520 L 14.792,86.520 L 14.792,83.520 L 10.000,83.520 Z"/>
    <path d="M 89.714,73.390 L 96.377,73.390 L 96.377,70.390 L 102.507,70.390 L 102.507,73.390 L 108.377,73.390 L 108.377,70.390 L 114.507,70.390 L 114.507,73.390 L 120.377,73.390 L 120.377,70.390 L 126.507,70.390 L 126.507,73.390 L 132.377,73.390 L 132.377,70.390 L 138.507,70.390 L 138.507,73.390 L 144.377,73.390 L 144.377,70.390 L 150.507,70.390 L 150.507,73.390 L 156.377,73.390 L 156.377,70.390 L 162.507,70.390 L 162.507,73.390 L 169.170,73.390 L 169.170,83.520 L 162.507,83.520 L 162.507,86.520 L 156.377,86.520 L 156.377,83.520 L 150.507,83.520 L 150.507,86.520 L 144.377,86.520 L 144.377,83.520 L 138.507,83.520 L 138.507,86.520 L 132.377,86.520 L 132.377,83.520 L 126.507,83.520 L 126.507,86.520 L 120.377,86.520 L 120.377,83.520 L 114.507,83.520 L 114.507,86.520 L 108.377,86.520 L 108.377,83.520 L 102.507,83.520 L 102.507,86.520 L 96.377,86.520 L 96.377,83.520 L 89.714,83.520 Z"/>
    <path d="M 173.170,73.390 L 175.704,73.390 L 175.704,70.390 L 181.834,70.390 L 181.834,73.390 L 187.704,73.390 L 187.704,70.390 L 193.834,70.390 L 193.834,73.390 L 199.704,73.390 L 199.704,70.390 L 205.834,70.390 L 205.834,73.390 L 211.704,73.390 L 211.704,70.390 L 217.834,70.390 L 217.834,73.390 L 223.704,73.390 L 223.704,70.390 L 229.834,70.390 L 229.834,73.390 L 235.704,73.390 L 235.704,70.390 L 241.834,70.390 L 241.834,73.390 L 247.704,73.390 L 247.704,70.390 L 253.834,70.390 L 253.834,73.390 L 256.369,73.390 L 256.369,83.520 L 253.834,83.520 L 253.834,86.520 L 247.704,86.520 L 247.704,83.520 L 241.834,83.520 L 241.834,86.520 L 235.704,86.520 L 235.704,83.520 L 229.834,83.520 L 229.834,86.520 L 223.704,86.520 L 223.704,83.520 L 217.834,83.520 L 217.834,86.520 L 211.704,86.520 L 211.704,83.520 L 205.834,83.520 L 205.834,86.520 L 199.704,86.520 L 199.704,83.520 L 193.834,83.520 L 193.834,86.520 L 187.704,86.520 L 187.704,83.520 L 181.834,83.520 L 181.834,86.520 L 175.704,86.520 L 175.704,83.520 L 173.170,83.520 Z"/>
    <path d="M 260.369,73.390 L 264.775,73.390 L 264.775,70.390 L 270.905,70.390 L 270.905,73.390 L 276.775,73.390 L 276.775,70.390 L 282.905,70.390 L 282.905,73.390 L 288.775,73.390 L 288.775,70.390 L 294.905,70.390 L 294.905,73.390 L 300.775,73.390 L 300.775,70.390 L 306.905,70.390 L 306.905,73.390 L 312.775,73.390 L 312.775,70.390 L 318.905,70.390 L 318.905,73.390 L 324.775,73.390 L 324.775,70.390 L 330.905,70.390 L 330.905,73.390 L 336.775,73.390 L 336.775,70.390 L 342.905,70.390 L 342.905,73.390 L 347.310,73.390 L 347.310,83.520 L 342.905,83.520 L 342.905,86.520 L 336.775,86.520 L 336.775,83.520 L 330.905,83.520 L 330.905,86.520 L 324.775,86.520 L 324.775,83.520 L 318.905,83.520 L 318.905,86.520 L 312.775,86.520 L 312.775,83.520 L 306.905,83.520 L 306.905,86.520 L 300.775,86.520 L 300.775,83.520 L 294.905,83.520 L 294.905,86.520 L 288.775,86.520 L 288.775,83.520 L 282.905,83.520 L 282.905,86.520 L 276.775,86.520 L 276.775,83.520 L 270.905,83.520 L 270.905,86.520 L 264.775,86.520 L 264.775,83.520 L 260.369,83.520 Z"/>
    <path d="M 351.310,73.390 L 356.552,73.390 L 356.552,70.390 L 362.682,70.390 L 362.682,73.390 L 368.552,73.390 L 368.552,70.390 L 374.682,70.390 L 374.682,73.390 L 380.552,73.390 L 380.552,70.390 L 386.682,70.390 L 386.682,73.390 L 392.552,73.390 L 392.552,70.390 L 398.682,70.390 L 398.682,73.390 L 404.552,73.390 L 404.552,70.390 L 410.682,70.390 L 410.682,73.390 L 416.552,73.390 L 416.552,70.390 L 422.682,70.390 L 422.682,73.390 L 428.552,73.390 L 428.552,70.390 L 434.682,70.390 L 434.682,73.390 L 439.924,73.390 L 439.924,83.520 L 434.682,83.520 L 434.682,86.520 L 428.552,86.520 L 428.552,83.520 L 422.682,83.520 L 422.682,86.520 L 416.552,86.520 L 416.552,83.520 L 410.682,83.520 L 410.682,86.520 L 404.552,86.520 L 404.552,83.520 L 398.682,83.520 L 398.682,86.520 L 392.552,86.520 L 392.552,83.520 L 386.682,83.520 L 386.682,86.520 L 380.552,86.520 L 380.552,83.520 L 374.682,83.520 L 374.682,86.520 L 368.552,86.520 L 368.552,83.520 L 362.682,83.520 L 362.682,86.520 L 356.552,86.520 L 356.552,83.520 L 351.310,83.520 Z"/>
    <path d="M 443.924,73.390 L 450.924,73.390 L 450.924,70.390 L 457.054,70.390 L 457.054,73.390 L 464.054,73.390 L 464.054,83.520 L 457.054,83.520 L 457.054,86.520 L 450.924,86.520 L 450.924,83.520 L 443.924,83.520 Z"/>
  </g>
</svg>
