<svg xmlns="http://www.w3.org/2000/svg" width="144.000mm" height="128.980mm"
     viewBox="0 0 144.000 128.980">
  <title>Square-to-round mouthpiece, asbuilt layout - 30 rings, 25mm square bore to 3.66mm throat to ø16.5mm lip</title>
  <desc>1 user unit = 1mm. Station one is a sharp 25mm square aperture in a sharp 31mm square plate, matching the bore corner for corner. The corners round away going up and the section is a true circle from the 7.5mm station on, so the 3.66mm throat and the whole cup are round. The asbuilt layout: 9 backbore rings, 17 entrance rings, then 4 bowl rings to a ø16.5mm rim. Wall 3 to 3.00mm, 3mm of rise a ring, stack 90mm. Every joint seats on at least 1.00mm per side, flats and corners alike. Rings stack; they do not telescope.</desc>
  <g id="ring-numbers" fill="none" stroke="#0000ff" stroke-width="0.1">
    <path d="M 18.0557,31.3308 L 18.5058,31.7985 L 18.5058,33.2015 L 18.0557,33.6692 L 17.6055,33.2015 L 17.6055,31.7985 L 18.0557,31.3308"/>
    <path d="M 19.0729,33.6692 L 19.5874,33.6692"/>
    <path d="M 49.5485,30.5952 L 49.8314,30.0808 L 49.8314,32.4192"/>
    <path d="M 49.5227,32.4192 L 50.1658,32.4192"/>
    <path d="M 50.8229,32.4192 L 51.3374,32.4192"/>
    <path d="M 78.5412,29.3452 L 78.7985,28.8308 L 79.3129,28.8308 L 79.5702,29.3452 L 79.5702,29.7662 L 78.5412,31.1692 L 79.5702,31.1692"/>
    <path d="M 80.0729,31.1692 L 80.5874,31.1692"/>
    <path d="M 105.2912,27.5808 L 106.3202,27.5808 L 105.7414,28.6331"/>
    <path d="M 105.7414,28.6331 L 106.3202,28.6331 L 106.3202,29.5451 L 106.0886,29.9192 L 105.5227,29.9192 L 105.2912,29.5451"/>
    <path d="M 106.8229,29.9192 L 107.3374,29.9192"/>
    <path d="M 100.7198,125.6031 L 100.7198,123.3569 L 100.0033,124.8843 L 100.9916,124.8843"/>
    <path d="M 101.4498,125.6031 L 101.9440,125.6031"/>
    <path d="M 76.5687,123.1933 L 75.7657,123.1933 L 75.7039,124.2041 L 76.1363,124.0469 L 76.5069,124.3164 L 76.6058,124.8106 L 76.4452,125.3047 L 76.0128,125.4395 L 75.7039,125.1699"/>
    <path d="M 77.1134,125.4395 L 77.6076,125.4395"/>
    <path d="M 52.8709,122.8610 L 52.5373,122.6813 L 52.1667,123.0182 L 52.0431,123.9167 L 52.0431,124.5232 L 52.2902,124.9275 L 52.6238,124.9275 L 52.9079,124.5232 L 52.9079,124.0739 L 52.6238,123.6921 L 52.2285,123.6921 L 52.0431,123.9167"/>
    <path d="M 53.4526,124.9275 L 53.9468,124.9275"/>
    <path d="M 129.5670,26.3308 L 130.5702,26.3308 L 129.9528,28.6692"/>
    <path d="M 131.0729,28.6692 L 131.5874,28.6692"/>
    <path d="M 30.2672,122.7516 L 29.9213,122.4596 L 29.9213,122.0328 L 30.2672,121.7408 L 30.6131,122.0328 L 30.6131,122.4596 L 30.2672,122.7516 L 29.8719,123.0885 L 29.8719,123.6725 L 30.2672,123.9870 L 30.6625,123.6725 L 30.6625,123.0885 L 30.2672,122.7516"/>
    <path d="M 31.2443,123.9870 L 31.7384,123.9870"/>
    <path d="M 11.3941,53.9822 L 11.7414,54.1692 L 12.1272,53.8185 L 12.2558,52.8831 L 12.2558,52.2517 L 11.9986,51.8308 L 11.6514,51.8308 L 11.3555,52.2517 L 11.3555,52.7194 L 11.6514,53.1169 L 12.0629,53.1169 L 12.2558,52.8831"/>
    <path d="M 12.8229,54.1692 L 13.3374,54.1692"/>
    <path d="M 10.1091,122.3831 L 10.6032,120.1369 L 11.0974,122.3831"/>
    <path d="M 10.3067,121.4846 L 10.8997,121.4846"/>
    <path d="M 11.5803,122.3831 L 12.0745,122.3831"/>
    <path d="M 30.6055,52.9192 L 30.6055,50.5808 L 31.2872,50.5808 L 31.5444,50.9783 L 31.5444,51.3291 L 31.2872,51.6331 L 30.6055,51.6331"/>
    <path d="M 30.6055,51.6331 L 31.3386,51.6331 L 31.5702,51.9838 L 31.5702,52.5451 L 31.3129,52.9192 L 30.6055,52.9192"/>
    <path d="M 32.0729,52.9192 L 32.5874,52.9192"/>
    <path d="M 77.5374,99.3062 L 77.2903,98.8569 L 76.7962,98.8569 L 76.5491,99.3062 L 76.5491,100.6538 L 76.7962,101.1031 L 77.2903,101.1031 L 77.5374,100.6538"/>
    <path d="M 78.0203,101.1031 L 78.5145,101.1031"/>
    <path d="M 59.1508,100.9031 L 59.1508,98.6569 L 59.6821,98.6569 L 60.0527,99.2409 L 60.0527,100.3191 L 59.6821,100.9031 L 59.1508,100.9031"/>
    <path d="M 60.5603,100.9031 L 61.0545,100.9031"/>
    <path d="M 43.0146,98.5031 L 42.1262,98.5031 L 42.1262,100.6569 L 43.0146,100.6569"/>
    <path d="M 42.1262,99.5800 L 42.7540,99.5800"/>
    <path d="M 43.4777,100.6569 L 43.9515,100.6569"/>
    <path d="M 26.3309,98.3031 L 25.4662,98.3031 L 25.4662,100.4569"/>
    <path d="M 25.4662,99.3369 L 26.0940,99.3369"/>
    <path d="M 26.8177,100.4569 L 27.2915,100.4569"/>
    <path d="M 8.6317,98.6545 L 8.8588,98.2415 L 8.8588,100.1185"/>
    <path d="M 8.6110,100.1185 L 9.1272,100.1185"/>
    <path d="M 10.5086,98.2415 L 10.8699,98.6169 L 10.8699,99.7431 L 10.5086,100.1185 L 10.1473,99.7431 L 10.1473,98.6169 L 10.5086,98.2415"/>
    <path d="M 11.3251,100.1185 L 11.7380,100.1185"/>
    <path d="M 67.0717,81.7945 L 67.2988,81.3815 L 67.2988,83.2585"/>
    <path d="M 67.0510,83.2585 L 67.5672,83.2585"/>
    <path d="M 68.7422,81.7945 L 68.9693,81.3815 L 68.9693,83.2585"/>
    <path d="M 68.7215,83.2585 L 69.2377,83.2585"/>
    <path d="M 69.7651,83.2585 L 70.1780,83.2585"/>
    <path d="M 46.8517,49.9745 L 47.0788,49.5615 L 47.0788,51.4385"/>
    <path d="M 46.8310,51.4385 L 47.3472,51.4385"/>
    <path d="M 48.3157,49.9745 L 48.5222,49.5615 L 48.9351,49.5615 L 49.1415,49.9745 L 49.1415,50.3123 L 48.3157,51.4385 L 49.1415,51.4385"/>
    <path d="M 49.5451,51.4385 L 49.9580,51.4385"/>
    <path d="M 51.6117,81.5945 L 51.8388,81.1815 L 51.8388,83.0585"/>
    <path d="M 51.5910,83.0585 L 52.1072,83.0585"/>
    <path d="M 53.0757,81.1815 L 53.9015,81.1815 L 53.4370,82.0262"/>
    <path d="M 53.4370,82.0262 L 53.9015,82.0262 L 53.9015,82.7582 L 53.7157,83.0585 L 53.2615,83.0585 L 53.0757,82.7582"/>
    <path d="M 54.3051,83.0585 L 54.7180,83.0585"/>
    <path d="M 36.5517,81.3945 L 36.7788,80.9815 L 36.7788,82.8585"/>
    <path d="M 36.5310,82.8585 L 37.0472,82.8585"/>
    <path d="M 38.6351,82.8585 L 38.6351,80.9815 L 38.0363,82.2578 L 38.8622,82.2578"/>
    <path d="M 39.2451,82.8585 L 39.6580,82.8585"/>
    <path d="M 21.8917,81.1945 L 22.1188,80.7815 L 22.1188,82.6585"/>
    <path d="M 21.8710,82.6585 L 22.3872,82.6585"/>
    <path d="M 24.1299,80.7815 L 23.4589,80.7815 L 23.4073,81.6262 L 23.7686,81.4948 L 24.0783,81.7200 L 24.1609,82.1329 L 24.0267,82.5458 L 23.6654,82.6585 L 23.4073,82.4332"/>
    <path d="M 24.5851,82.6585 L 24.9980,82.6585"/>
    <path d="M 7.6317,80.9945 L 7.8588,80.5815 L 7.8588,82.4585"/>
    <path d="M 7.6110,82.4585 L 8.1272,82.4585"/>
    <path d="M 9.8390,80.7317 L 9.5602,80.5815 L 9.2505,80.8631 L 9.1473,81.6138 L 9.1473,82.1206 L 9.3538,82.4585 L 9.6325,82.4585 L 9.8699,82.1206 L 9.8699,81.7452 L 9.6325,81.4262 L 9.3022,81.4262 L 9.1473,81.6138"/>
    <path d="M 10.3251,82.4585 L 10.7380,82.4585"/>
    <path d="M 58.1405,66.1603 L 58.3564,65.7677 L 58.3564,67.5523"/>
    <path d="M 58.1208,67.5523 L 58.6116,67.5523"/>
    <path d="M 59.5521,65.7677 L 60.3177,65.7677 L 59.8466,67.5523"/>
    <path d="M 60.7014,67.5523 L 61.0940,67.5523"/>
    <path d="M 44.6805,65.9603 L 44.8964,65.5677 L 44.8964,67.3523"/>
    <path d="M 44.6608,67.3523 L 45.1516,67.3523"/>
    <path d="M 46.4651,66.3708 L 46.1902,66.1388 L 46.1902,65.7997 L 46.4651,65.5677 L 46.7399,65.7997 L 46.7399,66.1388 L 46.4651,66.3708 L 46.1510,66.6385 L 46.1510,67.1025 L 46.4651,67.3523 L 46.7792,67.1025 L 46.7792,66.6385 L 46.4651,66.3708"/>
    <path d="M 47.2414,67.3523 L 47.6340,67.3523"/>
    <path d="M 61.1705,48.7503 L 61.3864,48.3577 L 61.3864,50.1423"/>
    <path d="M 61.1508,50.1423 L 61.6416,50.1423"/>
    <path d="M 62.6410,49.9995 L 62.9060,50.1423 L 63.2005,49.8746 L 63.2986,49.1608 L 63.2986,48.6789 L 63.1023,48.3577 L 62.8373,48.3577 L 62.6115,48.6789 L 62.6115,49.0358 L 62.8373,49.3392 L 63.1514,49.3392 L 63.2986,49.1608"/>
    <path d="M 63.7314,50.1423 L 64.1240,50.1423"/>
    <path d="M 31.6205,65.7603 L 31.8364,65.3677 L 31.8364,67.1523"/>
    <path d="M 31.6008,67.1523 L 32.0916,67.1523"/>
    <path d="M 33.0125,67.1523 L 33.4051,65.3677 L 33.7977,67.1523"/>
    <path d="M 33.1695,66.4385 L 33.6406,66.4385"/>
    <path d="M 34.1814,67.1523 L 34.5740,67.1523"/>
    <path d="M 18.9605,65.5603 L 19.1764,65.1677 L 19.1764,66.9523"/>
    <path d="M 18.9408,66.9523 L 19.4316,66.9523"/>
    <path d="M 20.4015,66.9523 L 20.4015,65.1677 L 20.9218,65.1677 L 21.1181,65.4711 L 21.1181,65.7388 L 20.9218,65.9708 L 20.4015,65.9708"/>
    <path d="M 20.4015,65.9708 L 20.9610,65.9708 L 21.1377,66.2385 L 21.1377,66.6668 L 20.9414,66.9523 L 20.4015,66.9523"/>
    <path d="M 21.5214,66.9523 L 21.9140,66.9523"/>
    <path d="M 6.7005,65.3603 L 6.9164,64.9677 L 6.9164,66.7523"/>
    <path d="M 6.6808,66.7523 L 7.1716,66.7523"/>
    <path d="M 8.8777,65.3246 L 8.6814,64.9677 L 8.2888,64.9677 L 8.0925,65.3246 L 8.0925,66.3954 L 8.2888,66.7523 L 8.6814,66.7523 L 8.8777,66.3954"/>
    <path d="M 9.2614,66.7523 L 9.6540,66.7523"/>
    <path d="M 73.5005,48.0803 L 73.7164,47.6877 L 73.7164,49.4723"/>
    <path d="M 73.4808,49.4723 L 73.9716,49.4723"/>
    <path d="M 74.9415,49.4723 L 74.9415,47.6877 L 75.3636,47.6877 L 75.6581,48.1517 L 75.6581,49.0083 L 75.3636,49.4723 L 74.9415,49.4723"/>
    <path d="M 76.0614,49.4723 L 76.4540,49.4723"/>
  </g>
  <g fill="none" stroke="#ff8000" stroke-width="0.1">
  <path d="M 6.0000,6.0000 H 31.0000 V 31.0000 H 6.0000 Z"/>
  <path d="M 39.5607,7.2500 H 60.9393 A 0.5607,0.5607 0 0 1 61.5000,7.8107 V 29.1893 A 0.5607,0.5607 0 0 1 60.9393,29.7500 H 39.5607 A 0.5607,0.5607 0 0 1 39.0000,29.1893 V 7.8107 A 0.5607,0.5607 0 0 1 39.5607,7.2500 Z"/>
  <path d="M 70.6213,8.5000 H 88.3787 A 1.1213,1.1213 0 0 1 89.5000,9.6213 V 27.3787 A 1.1213,1.1213 0 0 1 88.3787,28.5000 H 70.6213 A 1.1213,1.1213 0 0 1 69.5000,27.3787 V 9.6213 A 1.1213,1.1213 0 0 1 70.6213,8.5000 Z"/>
  <path d="M 99.1820,9.7500 H 113.3180 A 1.6820,1.6820 0 0 1 115.0000,11.4320 V 25.5680 A 1.6820,1.6820 0 0 1 113.3180,27.2500 H 99.1820 A 1.6820,1.6820 0 0 1 97.5000,25.5680 V 11.4320 A 1.6820,1.6820 0 0 1 99.1820,9.7500 Z"/>
  <path d="M 125.2426,11.0000 H 135.7574 A 2.2426,2.2426 0 0 1 138.0000,13.2426 V 23.7574 A 2.2426,2.2426 0 0 1 135.7574,26.0000 H 125.2426 A 2.2426,2.2426 0 0 1 123.0000,23.7574 V 13.2426 A 2.2426,2.2426 0 0 1 125.2426,11.0000 Z"/>
  <path d="M 8.8033,39.0000 H 15.6967 A 2.8033,2.8033 0 0 1 18.5000,41.8033 V 48.6967 A 2.8033,2.8033 0 0 1 15.6967,51.5000 H 8.8033 A 2.8033,2.8033 0 0 1 6.0000,48.6967 V 41.8033 A 2.8033,2.8033 0 0 1 8.8033,39.0000 Z"/>
  <path d="M 29.8640,40.2500 H 33.1360 A 3.3640,3.3640 0 0 1 36.5000,43.6140 V 46.8860 A 3.3640,3.3640 0 0 1 33.1360,50.2500 H 29.8640 A 3.3640,3.3640 0 0 1 26.5000,46.8860 V 43.6140 A 3.3640,3.3640 0 0 1 29.8640,40.2500 Z"/>
  <path d="M 48.2500,41.5000 A 3.7500,3.7500 0 0 1 52.0000,45.2500 A 3.7500,3.7500 0 0 1 48.2500,49.0000 A 3.7500,3.7500 0 0 1 44.5000,45.2500 A 3.7500,3.7500 0 0 1 48.2500,41.5000 Z"/>
  <path d="M 62.5000,42.7500 A 2.5000,2.5000 0 0 1 65.0000,45.2500 A 2.5000,2.5000 0 0 1 62.5000,47.7500 A 2.5000,2.5000 0 0 1 60.0000,45.2500 A 2.5000,2.5000 0 0 1 62.5000,42.7500 Z"/>
  <path d="M 74.8300,43.4200 A 1.8300,1.8300 0 0 1 76.6600,45.2500 A 1.8300,1.8300 0 0 1 74.8300,47.0800 A 1.8300,1.8300 0 0 1 73.0000,45.2500 A 1.8300,1.8300 0 0 1 74.8300,43.4200 Z"/>
  <path d="M 8.0300,60.3000 A 2.0300,2.0300 0 0 1 10.0600,62.3300 A 2.0300,2.0300 0 0 1 8.0300,64.3600 A 2.0300,2.0300 0 0 1 6.0000,62.3300 A 2.0300,2.0300 0 0 1 8.0300,60.3000 Z"/>
  <path d="M 20.2900,60.1000 A 2.2300,2.2300 0 0 1 22.5200,62.3300 A 2.2300,2.2300 0 0 1 20.2900,64.5600 A 2.2300,2.2300 0 0 1 18.0600,62.3300 A 2.2300,2.2300 0 0 1 20.2900,60.1000 Z"/>
  <path d="M 32.9500,59.9000 A 2.4300,2.4300 0 0 1 35.3800,62.3300 A 2.4300,2.4300 0 0 1 32.9500,64.7600 A 2.4300,2.4300 0 0 1 30.5200,62.3300 A 2.4300,2.4300 0 0 1 32.9500,59.9000 Z"/>
  <path d="M 46.0100,59.7000 A 2.6300,2.6300 0 0 1 48.6400,62.3300 A 2.6300,2.6300 0 0 1 46.0100,64.9600 A 2.6300,2.6300 0 0 1 43.3800,62.3300 A 2.6300,2.6300 0 0 1 46.0100,59.7000 Z"/>
  <path d="M 59.4700,59.5000 A 2.8300,2.8300 0 0 1 62.3000,62.3300 A 2.8300,2.8300 0 0 1 59.4700,65.1600 A 2.8300,2.8300 0 0 1 56.6400,62.3300 A 2.8300,2.8300 0 0 1 59.4700,59.5000 Z"/>
  <path d="M 9.0300,73.9600 A 3.0300,3.0300 0 0 1 12.0600,76.9900 A 3.0300,3.0300 0 0 1 9.0300,80.0200 A 3.0300,3.0300 0 0 1 6.0000,76.9900 A 3.0300,3.0300 0 0 1 9.0300,73.9600 Z"/>
  <path d="M 23.2900,73.7600 A 3.2300,3.2300 0 0 1 26.5200,76.9900 A 3.2300,3.2300 0 0 1 23.2900,80.2200 A 3.2300,3.2300 0 0 1 20.0600,76.9900 A 3.2300,3.2300 0 0 1 23.2900,73.7600 Z"/>
  <path d="M 37.9500,73.5600 A 3.4300,3.4300 0 0 1 41.3800,76.9900 A 3.4300,3.4300 0 0 1 37.9500,80.4200 A 3.4300,3.4300 0 0 1 34.5200,76.9900 A 3.4300,3.4300 0 0 1 37.9500,73.5600 Z"/>
  <path d="M 53.0100,73.3600 A 3.6300,3.6300 0 0 1 56.6400,76.9900 A 3.6300,3.6300 0 0 1 53.0100,80.6200 A 3.6300,3.6300 0 0 1 49.3800,76.9900 A 3.6300,3.6300 0 0 1 53.0100,73.3600 Z"/>
  <path d="M 68.4700,73.1600 A 3.8300,3.8300 0 0 1 72.3000,76.9900 A 3.8300,3.8300 0 0 1 68.4700,80.8200 A 3.8300,3.8300 0 0 1 64.6400,76.9900 A 3.8300,3.8300 0 0 1 68.4700,73.1600 Z"/>
  <path d="M 10.0300,89.6200 A 4.0300,4.0300 0 0 1 14.0600,93.6500 A 4.0300,4.0300 0 0 1 10.0300,97.6800 A 4.0300,4.0300 0 0 1 6.0000,93.6500 A 4.0300,4.0300 0 0 1 10.0300,89.6200 Z"/>
  <path d="M 26.2900,89.4200 A 4.2300,4.2300 0 0 1 30.5200,93.6500 A 4.2300,4.2300 0 0 1 26.2900,97.8800 A 4.2300,4.2300 0 0 1 22.0600,93.6500 A 4.2300,4.2300 0 0 1 26.2900,89.4200 Z"/>
  <path d="M 42.9500,89.2200 A 4.4300,4.4300 0 0 1 47.3800,93.6500 A 4.4300,4.4300 0 0 1 42.9500,98.0800 A 4.4300,4.4300 0 0 1 38.5200,93.6500 A 4.4300,4.4300 0 0 1 42.9500,89.2200 Z"/>
  <path d="M 60.0100,89.0200 A 4.6300,4.6300 0 0 1 64.6400,93.6500 A 4.6300,4.6300 0 0 1 60.0100,98.2800 A 4.6300,4.6300 0 0 1 55.3800,93.6500 A 4.6300,4.6300 0 0 1 60.0100,89.0200 Z"/>
  <path d="M 77.4700,88.8200 A 4.8300,4.8300 0 0 1 82.3000,93.6500 A 4.8300,4.8300 0 0 1 77.4700,98.4800 A 4.8300,4.8300 0 0 1 72.6400,93.6500 A 4.8300,4.8300 0 0 1 77.4700,88.8200 Z"/>
  <path d="M 11.0300,109.7000 A 5.0300,5.0300 0 0 1 16.0600,114.7300 A 5.0300,5.0300 0 0 1 11.0300,119.7600 A 5.0300,5.0300 0 0 1 6.0000,114.7300 A 5.0300,5.0300 0 0 1 11.0300,109.7000 Z"/>
  <path d="M 30.6939,108.0961 A 6.6339,6.6339 0 0 1 37.3279,114.7300 A 6.6339,6.6339 0 0 1 30.6939,121.3639 A 6.6339,6.6339 0 0 1 24.0600,114.7300 A 6.6339,6.6339 0 0 1 30.6939,108.0961 Z"/>
  <path d="M 52.9023,107.1556 A 7.5744,7.5744 0 0 1 60.4767,114.7300 A 7.5744,7.5744 0 0 1 52.9023,122.3044 A 7.5744,7.5744 0 0 1 45.3279,114.7300 A 7.5744,7.5744 0 0 1 52.9023,107.1556 Z"/>
  <path d="M 76.5631,106.6436 A 8.0864,8.0864 0 0 1 84.6495,114.7300 A 8.0864,8.0864 0 0 1 76.5631,122.8164 A 8.0864,8.0864 0 0 1 68.4767,114.7300 A 8.0864,8.0864 0 0 1 76.5631,106.6436 Z"/>
  <path d="M 100.8995,106.4800 A 8.2500,8.2500 0 0 1 109.1495,114.7300 A 8.2500,8.2500 0 0 1 100.8995,122.9800 A 8.2500,8.2500 0 0 1 92.6495,114.7300 A 8.2500,8.2500 0 0 1 100.8995,106.4800 Z"/>
  </g>
  <g fill="none" stroke="#000000" stroke-width="0.1">
  <path d="M 3.0000,3.0000 H 34.0000 V 34.0000 H 3.0000 Z"/>
  <path d="M 39.5607,4.2500 H 60.9393 A 3.5607,3.5607 0 0 1 64.5000,7.8107 V 29.1893 A 3.5607,3.5607 0 0 1 60.9393,32.7500 H 39.5607 A 3.5607,3.5607 0 0 1 36.0000,29.1893 V 7.8107 A 3.5607,3.5607 0 0 1 39.5607,4.2500 Z"/>
  <path d="M 70.6213,5.5000 H 88.3787 A 4.1213,4.1213 0 0 1 92.5000,9.6213 V 27.3787 A 4.1213,4.1213 0 0 1 88.3787,31.5000 H 70.6213 A 4.1213,4.1213 0 0 1 66.5000,27.3787 V 9.6213 A 4.1213,4.1213 0 0 1 70.6213,5.5000 Z"/>
  <path d="M 99.1820,6.7500 H 113.3180 A 4.6820,4.6820 0 0 1 118.0000,11.4320 V 25.5680 A 4.6820,4.6820 0 0 1 113.3180,30.2500 H 99.1820 A 4.6820,4.6820 0 0 1 94.5000,25.5680 V 11.4320 A 4.6820,4.6820 0 0 1 99.1820,6.7500 Z"/>
  <path d="M 125.2426,8.0000 H 135.7574 A 5.2426,5.2426 0 0 1 141.0000,13.2426 V 23.7574 A 5.2426,5.2426 0 0 1 135.7574,29.0000 H 125.2426 A 5.2426,5.2426 0 0 1 120.0000,23.7574 V 13.2426 A 5.2426,5.2426 0 0 1 125.2426,8.0000 Z"/>
  <path d="M 8.8033,36.0000 H 15.6967 A 5.8033,5.8033 0 0 1 21.5000,41.8033 V 48.6967 A 5.8033,5.8033 0 0 1 15.6967,54.5000 H 8.8033 A 5.8033,5.8033 0 0 1 3.0000,48.6967 V 41.8033 A 5.8033,5.8033 0 0 1 8.8033,36.0000 Z"/>
  <path d="M 29.8640,37.2500 H 33.1360 A 6.3640,6.3640 0 0 1 39.5000,43.6140 V 46.8860 A 6.3640,6.3640 0 0 1 33.1360,53.2500 H 29.8640 A 6.3640,6.3640 0 0 1 23.5000,46.8860 V 43.6140 A 6.3640,6.3640 0 0 1 29.8640,37.2500 Z"/>
  <path d="M 48.2500,38.5000 A 6.7500,6.7500 0 0 1 55.0000,45.2500 A 6.7500,6.7500 0 0 1 48.2500,52.0000 A 6.7500,6.7500 0 0 1 41.5000,45.2500 A 6.7500,6.7500 0 0 1 48.2500,38.5000 Z"/>
  <path d="M 62.5000,39.7500 A 5.5000,5.5000 0 0 1 68.0000,45.2500 A 5.5000,5.5000 0 0 1 62.5000,50.7500 A 5.5000,5.5000 0 0 1 57.0000,45.2500 A 5.5000,5.5000 0 0 1 62.5000,39.7500 Z"/>
  <path d="M 74.8300,40.4200 A 4.8300,4.8300 0 0 1 79.6600,45.2500 A 4.8300,4.8300 0 0 1 74.8300,50.0800 A 4.8300,4.8300 0 0 1 70.0000,45.2500 A 4.8300,4.8300 0 0 1 74.8300,40.4200 Z"/>
  <path d="M 8.0300,57.3000 A 5.0300,5.0300 0 0 1 13.0600,62.3300 A 5.0300,5.0300 0 0 1 8.0300,67.3600 A 5.0300,5.0300 0 0 1 3.0000,62.3300 A 5.0300,5.0300 0 0 1 8.0300,57.3000 Z"/>
  <path d="M 20.2900,57.1000 A 5.2300,5.2300 0 0 1 25.5200,62.3300 A 5.2300,5.2300 0 0 1 20.2900,67.5600 A 5.2300,5.2300 0 0 1 15.0600,62.3300 A 5.2300,5.2300 0 0 1 20.2900,57.1000 Z"/>
  <path d="M 32.9500,56.9000 A 5.4300,5.4300 0 0 1 38.3800,62.3300 A 5.4300,5.4300 0 0 1 32.9500,67.7600 A 5.4300,5.4300 0 0 1 27.5200,62.3300 A 5.4300,5.4300 0 0 1 32.9500,56.9000 Z"/>
  <path d="M 46.0100,56.7000 A 5.6300,5.6300 0 0 1 51.6400,62.3300 A 5.6300,5.6300 0 0 1 46.0100,67.9600 A 5.6300,5.6300 0 0 1 40.3800,62.3300 A 5.6300,5.6300 0 0 1 46.0100,56.7000 Z"/>
  <path d="M 59.4700,56.5000 A 5.8300,5.8300 0 0 1 65.3000,62.3300 A 5.8300,5.8300 0 0 1 59.4700,68.1600 A 5.8300,5.8300 0 0 1 53.6400,62.3300 A 5.8300,5.8300 0 0 1 59.4700,56.5000 Z"/>
  <path d="M 9.0300,70.9600 A 6.0300,6.0300 0 0 1 15.0600,76.9900 A 6.0300,6.0300 0 0 1 9.0300,83.0200 A 6.0300,6.0300 0 0 1 3.0000,76.9900 A 6.0300,6.0300 0 0 1 9.0300,70.9600 Z"/>
  <path d="M 23.2900,70.7600 A 6.2300,6.2300 0 0 1 29.5200,76.9900 A 6.2300,6.2300 0 0 1 23.2900,83.2200 A 6.2300,6.2300 0 0 1 17.0600,76.9900 A 6.2300,6.2300 0 0 1 23.2900,70.7600 Z"/>
  <path d="M 37.9500,70.5600 A 6.4300,6.4300 0 0 1 44.3800,76.9900 A 6.4300,6.4300 0 0 1 37.9500,83.4200 A 6.4300,6.4300 0 0 1 31.5200,76.9900 A 6.4300,6.4300 0 0 1 37.9500,70.5600 Z"/>
  <path d="M 53.0100,70.3600 A 6.6300,6.6300 0 0 1 59.6400,76.9900 A 6.6300,6.6300 0 0 1 53.0100,83.6200 A 6.6300,6.6300 0 0 1 46.3800,76.9900 A 6.6300,6.6300 0 0 1 53.0100,70.3600 Z"/>
  <path d="M 68.4700,70.1600 A 6.8300,6.8300 0 0 1 75.3000,76.9900 A 6.8300,6.8300 0 0 1 68.4700,83.8200 A 6.8300,6.8300 0 0 1 61.6400,76.9900 A 6.8300,6.8300 0 0 1 68.4700,70.1600 Z"/>
  <path d="M 10.0300,86.6200 A 7.0300,7.0300 0 0 1 17.0600,93.6500 A 7.0300,7.0300 0 0 1 10.0300,100.6800 A 7.0300,7.0300 0 0 1 3.0000,93.6500 A 7.0300,7.0300 0 0 1 10.0300,86.6200 Z"/>
  <path d="M 26.2900,86.4200 A 7.2300,7.2300 0 0 1 33.5200,93.6500 A 7.2300,7.2300 0 0 1 26.2900,100.8800 A 7.2300,7.2300 0 0 1 19.0600,93.6500 A 7.2300,7.2300 0 0 1 26.2900,86.4200 Z"/>
  <path d="M 42.9500,86.2200 A 7.4300,7.4300 0 0 1 50.3800,93.6500 A 7.4300,7.4300 0 0 1 42.9500,101.0800 A 7.4300,7.4300 0 0 1 35.5200,93.6500 A 7.4300,7.4300 0 0 1 42.9500,86.2200 Z"/>
  <path d="M 60.0100,86.0200 A 7.6300,7.6300 0 0 1 67.6400,93.6500 A 7.6300,7.6300 0 0 1 60.0100,101.2800 A 7.6300,7.6300 0 0 1 52.3800,93.6500 A 7.6300,7.6300 0 0 1 60.0100,86.0200 Z"/>
  <path d="M 77.4700,85.8200 A 7.8300,7.8300 0 0 1 85.3000,93.6500 A 7.8300,7.8300 0 0 1 77.4700,101.4800 A 7.8300,7.8300 0 0 1 69.6400,93.6500 A 7.8300,7.8300 0 0 1 77.4700,85.8200 Z"/>
  <path d="M 11.0300,106.7000 A 8.0300,8.0300 0 0 1 19.0600,114.7300 A 8.0300,8.0300 0 0 1 11.0300,122.7600 A 8.0300,8.0300 0 0 1 3.0000,114.7300 A 8.0300,8.0300 0 0 1 11.0300,106.7000 Z"/>
  <path d="M 30.6939,105.0961 A 9.6339,9.6339 0 0 1 40.3279,114.7300 A 9.6339,9.6339 0 0 1 30.6939,124.3639 A 9.6339,9.6339 0 0 1 21.0600,114.7300 A 9.6339,9.6339 0 0 1 30.6939,105.0961 Z"/>
  <path d="M 52.9023,104.1556 A 10.5744,10.5744 0 0 1 63.4767,114.7300 A 10.5744,10.5744 0 0 1 52.9023,125.3044 A 10.5744,10.5744 0 0 1 42.3279,114.7300 A 10.5744,10.5744 0 0 1 52.9023,104.1556 Z"/>
  <path d="M 76.5631,103.6436 A 11.0864,11.0864 0 0 1 87.6495,114.7300 A 11.0864,11.0864 0 0 1 76.5631,125.8164 A 11.0864,11.0864 0 0 1 65.4767,114.7300 A 11.0864,11.0864 0 0 1 76.5631,103.6436 Z"/>
  <path d="M 100.8995,103.4800 A 11.2500,11.2500 0 0 1 112.1495,114.7300 A 11.2500,11.2500 0 0 1 100.8995,125.9800 A 11.2500,11.2500 0 0 1 89.6495,114.7300 A 11.2500,11.2500 0 0 1 100.8995,103.4800 Z"/>
  </g>
</svg>
